<?xml version="1.0" standalone="no"?>
<!DOCTYPE svg PUBLIC "-//W3C//DTD SVG 1.1//EN" "http://www.w3.org/Graphics/SVG/1.1/DTD/svg11.dtd" >
<!--
2013-9-30: Created.
-->
<svg>
<metadata>
Created by iconfont
</metadata>
<defs>

<font id="iconfont" horiz-adv-x="1024" >
  <font-face
    font-family="iconfont"
    font-weight="500"
    font-stretch="normal"
    units-per-em="1024"
    ascent="896"
    descent="-128"
  />
    <missing-glyph />
    
    <glyph glyph-name="icon-shape-of-up" unicode="&#59152;" d="M478.4 638.4L86.4 259.20000000000005c-32-30.4-9.6-83.2 33.6-83.2h782.4c43.2 0 65.6 52.8 33.6 83.2L545.6 638.4c-19.2 17.6-48 17.6-67.2 0z"  horiz-adv-x="1024" />

    
    <glyph glyph-name="icon-shape-of-down" unicode="&#59153;" d="M545.6 73.60000000000002l392 379.2c32 30.4 9.6 83.2-33.6 83.2h-784c-43.2 0-65.6-52.8-33.6-83.2l392-379.2c19.2-17.6 48-17.6 67.2 0z"  horiz-adv-x="1024" />

    
    <glyph glyph-name="icon-sharp-left" unicode="&#59154;" d="M704-64c-16 0-32 6.4-44.8 19.2l-384 384c-25.6 25.6-25.6 65.6 0 91.2l384 384c25.6 25.6 65.6 25.6 91.2 0 25.6-25.6 25.6-65.6 0-91.2L409.6 384l339.2-339.2c25.6-25.6 25.6-65.6 0-91.2-11.2-12.8-28.8-17.6-44.8-17.6z"  horiz-adv-x="1024" />

    
    <glyph glyph-name="icon-sharp-right" unicode="&#59155;" d="M320-64c-16 0-32 6.4-44.8 19.2-25.6 25.6-25.6 65.6 0 91.2L614.4 384 275.2 723.2c-25.6 25.6-25.6 65.6 0 91.2 25.6 25.6 65.6 25.6 91.2 0l384-384c25.6-25.6 25.6-65.6 0-91.2l-384-384C352-59.200000000000045 336-64 320-64z"  horiz-adv-x="1024" />

    
    <glyph glyph-name="change-area-by-scan" unicode="&#59141;" d="M97.6 656c17.6 0 32 14.4 32 32v41.6c0 19.2 16 35.2 35.2 35.2H240c17.6 0 32 14.4 32 32s-14.4 32-32 32h-75.2c-54.4 0-99.2-44.8-99.2-99.2V688c0-17.6 14.4-32 32-32zM860.8 828.8h-75.2c-17.6 0-32-14.4-32-32s14.4-32 32-32h75.2c19.2 0 35.2-16 35.2-35.2V688c0-17.6 14.4-32 32-32s32 14.4 32 32v41.6c0 54.4-44.8 99.2-99.2 99.2zM928 105.60000000000002c-17.6 0-32-14.4-32-32V32c0-19.2-16-35.2-35.2-35.2h-75.2c-17.6 0-32-14.4-32-32s14.4-32 32-32h75.2c54.4 0 99.2 44.8 99.2 99.2v41.6c0 17.6-14.4 32-32 32zM240-3.2000000000000455h-75.2c-19.2 0-35.2 16-35.2 35.2v41.6c0 17.6-14.4 32-32 32s-32-14.4-32-32V32c0-54.4 44.8-99.2 99.2-99.2H240c17.6 0 32 14.4 32 32s-14.4 32-32 32zM68.8 488c0-17.6 14.4-32 32-32h744l-38.4-33.6c-12.8-11.2-14.4-32-1.6-44.8 6.4-6.4 14.4-11.2 24-11.2 8 0 16 3.2 20.8 8l99.2 89.6c6.4 6.4 11.2 14.4 11.2 24s-3.2 17.6-11.2 24l-99.2 89.6c-12.8 11.2-33.6 11.2-44.8-1.6s-11.2-33.6 1.6-44.8l38.4-33.6H100.8c-19.2-1.6-32-16-32-33.6zM176 150.39999999999998c12.8-11.2 33.6-11.2 44.8 1.6s11.2 33.6-1.6 44.8l-38.4 33.6h744c17.6 0 32 14.4 32 32s-14.4 32-32 32H180.8l38.4 33.6c12.8 11.2 14.4 32 1.6 44.8-6.4 6.4-14.4 11.2-24 11.2-8 0-16-3.2-20.8-8L76.8 288c-6.4-6.4-11.2-14.4-11.2-24s3.2-17.6 11.2-24l99.2-89.6z"  horiz-adv-x="1024" />

    
    <glyph glyph-name="relate-to-batchorder" unicode="&#59138;" d="M894.4 14.399999999999977l68.8 67.2L800 244.79999999999995l91.2 91.2-281.6 32 9.6-91.2-161.6 17.6 32-281.6 91.2 91.2 169.6-169.6 67.2 68.8-129.6 129.6 43.2 44.8zM704 644.8c0 49.6-19.2 94.4-54.4 129.6-35.2 35.2-80 54.4-129.6 54.4-49.6 0-94.4-19.2-129.6-54.4L100.8 484.8C48 430.4 48 342.4 100.8 289.6c25.6-25.6 60.8-40 97.6-40s72 14.4 97.6 40l289.6 289.6c17.6 17.6 27.2 40 27.2 65.6s-9.6 48-27.2 65.6c-17.6 17.6-40 27.2-65.6 27.2s-48-9.6-65.6-27.2L228.8 483.2c-12.8-12.8-12.8-32 0-44.8 12.8-12.8 32-12.8 44.8 0l227.2 227.2c11.2 11.2 30.4 11.2 40 0 4.8-4.8 8-12.8 8-20.8s-3.2-14.4-8-20.8L251.2 334.4c-14.4-14.4-32-22.4-52.8-22.4S160 320 145.6 334.4c-14.4 14.4-22.4 32-22.4 52.8 0 19.2 8 38.4 22.4 52.8l289.6 289.6c22.4 22.4 52.8 35.2 84.8 35.2s62.4-12.8 84.8-35.2 35.2-52.8 35.2-84.8-12.8-62.4-35.2-84.8L324.8 280c-12.8-12.8-12.8-32 0-44.8 6.4-6.4 14.4-9.6 22.4-9.6s16 3.2 22.4 9.6l280 280c35.2 33.6 54.4 80 54.4 129.6z"  horiz-adv-x="1024" />

    
    <glyph glyph-name="multi-print-label" unicode="&#59139;" d="M854.4 704H768V771.2C768 804.8 740.8 832 707.2 832H316.8C283.2 832 256 804.8 256 771.2V704h-86.4C112 704 64 656 64 598.4v-300.8C64 240 112 192 169.6 192H224c17.6 0 32 14.4 32 32s-14.4 32-32 32h-54.4C147.2 256 128 275.20000000000005 128 297.6V598.4c0 22.4 19.2 41.6 41.6 41.6h684.8c22.4 0 41.6-19.2 41.6-41.6 0-17.6 14.4-32 32-32s32 14.4 32 32c0 57.6-48 105.6-105.6 105.6zM320 704V768h384v-64H320zM224 480h176c17.6 0 32 14.4 32 32s-14.4 32-32 32H224c-17.6 0-32-14.4-32-32s14.4-32 32-32zM224 352h80c17.6 0 32 14.4 32 32s-14.4 32-32 32h-80c-17.6 0-32-14.4-32-32s14.4-32 32-32zM595.2 216c4.8 0 11.2 0 16 1.6 24 4.8 43.2 17.6 57.6 36.8 14.4 19.2 19.2 43.2 14.4 67.2-4.8 24-17.6 43.2-36.8 57.6s-43.2 19.2-67.2 14.4c-24-4.8-43.2-17.6-57.6-36.8-14.4-19.2-19.2-43.2-14.4-67.2 4.8-24 17.6-43.2 36.8-57.6 16-9.6 33.6-16 51.2-16zM574.4 320c3.2 4.8 9.6 9.6 16 9.6h4.8c4.8 0 9.6-1.6 14.4-4.8 4.8-3.2 9.6-9.6 9.6-16 1.6-6.4 0-12.8-4.8-19.2-3.2-4.8-9.6-9.6-16-9.6-6.4-1.6-12.8 0-19.2 4.8s-9.6 9.6-9.6 16 1.6 14.4 4.8 19.2zM851.2 465.6c-3.2 17.6-19.2 28.8-36.8 25.6L752 480l-1.6 6.4c-1.6 8-6.4 16-12.8 20.8-6.4 4.8-16 6.4-24 4.8l-198.4-35.2c-8-1.6-16-6.4-20.8-12.8L288 171.20000000000005c-4.8-6.4-6.4-16-4.8-24s6.4-16 12.8-20.8l233.6-164.8c4.8-3.2 11.2-6.4 17.6-6.4 9.6 0 20.8 4.8 25.6 14.4l4.8 6.4 52.8-36.8c4.8-3.2 12.8-6.4 17.6-6.4 9.6 0 20.8 4.8 25.6 14.4L878.4 240c4.8 6.4 6.4 16 4.8 24l-32 201.6z m-492.8-304l179.2 256 155.2 27.2 27.2-155.2-179.2-256-182.4 128z m284.8-150.4l-25.6 17.6 163.2 233.6c4.8 6.4 6.4 16 4.8 24L763.2 416l32 6.4 27.2-155.2-179.2-256z"  horiz-adv-x="1024" />

    
    <glyph glyph-name="management-of-querying-role-and-authority" unicode="&#59140;" d="M902.4 504c-30.4 20.8-65.6 28.8-102.4 22.4-35.2-6.4-67.2-25.6-88-56-36.8-52.8-30.4-121.6 9.6-168l-156.8-219.2c-9.6-14.4-6.4-33.6 8-44.8 6.4-4.8 12.8-6.4 19.2-6.4 9.6 0 19.2 4.8 25.6 12.8l38.4 54.4 43.2-30.4c4.8-3.2 12.8-6.4 17.6-6.4 9.6 0 20.8 4.8 25.6 14.4 9.6 14.4 6.4 35.2-8 44.8l-43.2 30.4 24 32 70.4-49.6c4.8-3.2 12.8-6.4 17.6-6.4 9.6 0 20.8 4.8 25.6 14.4 9.6 14.4 6.4 35.2-8 44.8l-70.4 49.6 20.8 28.8c16-6.4 32-9.6 49.6-9.6 8 0 16 0 24 1.6 35.2 6.4 67.2 25.6 88 56 46.4 62.4 32 147.2-30.4 190.4z m-19.2-153.6c-11.2-16-27.2-25.6-46.4-30.4-19.2-3.2-38.4 1.6-54.4 11.2-32 22.4-40 67.2-17.6 100.8 11.2 16 27.2 25.6 46.4 30.4 4.8 0 8 1.6 12.8 1.6 14.4 0 28.8-4.8 41.6-12.8 33.6-22.4 41.6-68.8 17.6-100.8zM806.4 80c-17.6-3.2-30.4-19.2-27.2-36.8L784 0H137.6c12.8 214.4 152 384 323.2 384 49.6 0 99.2-14.4 142.4-43.2 14.4-9.6 35.2-4.8 44.8 9.6 9.6 14.4 4.8 35.2-9.6 44.8-16 9.6-33.6 19.2-49.6 25.6C648 460.8 688 529.6 688 608c0 123.2-100.8 224-224 224s-224-100.8-224-224c0-76.8 38.4-144 97.6-184-153.6-64-265.6-244.8-265.6-456 0-17.6 14.4-32 32-32H816c17.6 0 32 14.4 32 32 0 28.8-1.6 57.6-6.4 84.8-1.6 17.6-19.2 28.8-35.2 27.2zM304 608c0 88 72 160 160 160s160-72 160-160-72-160-160-160-160 72-160 160z"  horiz-adv-x="1024" />

    
    <glyph glyph-name="use-tracking" unicode="&#59142;" d="M704 448c-140.8 0-256-115.2-256-256s115.2-256 256-256 256 115.2 256 256-115.2 256-256 256z m32-444.8V80c0 17.6-14.4 32-32 32s-32-14.4-32-32v-76.8c-80 12.8-144 76.8-156.8 156.8H592c17.6 0 32 14.4 32 32s-14.4 32-32 32h-76.8c12.8 80 76.8 144 156.8 156.8V304c0-17.6 14.4-32 32-32s32 14.4 32 32v76.8c80-12.8 144-76.8 156.8-156.8H832c-17.6 0-32-14.4-32-32s14.4-32 32-32h60.8c-12.8-80-76.8-144-156.8-156.8zM704 192m-48 0a48 48 0 1 1 96 0 48 48 0 1 1-96 0ZM480 464c0 17.6-14.4 32-32 32H224c-17.6 0-32-14.4-32-32s14.4-32 32-32h224c17.6 0 32 14.4 32 32zM704 608c0 17.6-14.4 32-32 32H224c-17.6 0-32-14.4-32-32s14.4-32 32-32h448c17.6 0 32 14.4 32 32zM224 208c-17.6 0-32-14.4-32-32s14.4-32 32-32h144c17.6 0 32 14.4 32 32s-14.4 32-32 32h-144zM416 320c0 17.6-14.4 32-32 32H224c-17.6 0-32-14.4-32-32s14.4-32 32-32h160c17.6 0 32 14.4 32 32zM448 0H158.4c-16 0-30.4 14.4-30.4 30.4V737.6C128 753.6 142.4 768 158.4 768H736c17.6 0 32-14.4 32-30.4V528c0-17.6 14.4-32 32-32s32 14.4 32 32V737.6C832 788.8 788.8 832 737.6 832H158.4C107.2 832 64 788.8 64 737.6V32c0-52.8 43.2-96 94.4-96H448c17.6 0 32 14.4 32 32s-14.4 32-32 32z"  horiz-adv-x="1024" />

    
    <glyph glyph-name="confirm-material" unicode="&#59143;" d="M852.8 246.39999999999998c-12.8 12.8-32 12.8-44.8 0l-105.6-105.6-38.4 38.4c-12.8 12.8-32 12.8-44.8 0-12.8-12.8-12.8-32 0-44.8l60.8-60.8c6.4-6.4 14.4-9.6 22.4-9.6s16 3.2 22.4 9.6l128 128c12.8 12.8 12.8 32 0 44.8zM491.2 0H161.6C142.4 0 128 12.799999999999955 128 27.200000000000045V584c54.4-35.2 140.8-56 240-56s185.6 22.4 240 56V448c0-17.6 14.4-32 32-32s32 14.4 32 32V688c0 4.8-1.6 9.6-3.2 12.8C649.6 777.6 526.4 832 368 832S86.4 777.6 67.2 700.8c-1.6-3.2-3.2-8-3.2-12.8v-660.8c0-49.6 43.2-91.2 97.6-91.2h331.2c17.6 0 32 14.4 32 32s-16 32-33.6 32zM368 768c147.2 0 240-52.8 240-88S515.2 592 368 592 128 644.8 128 680 220.8 768 368 768zM240 448c-17.6 0-32-14.4-32-32v-144c0-17.6 14.4-32 32-32h256c17.6 0 32 14.4 32 32v144c0 17.6-14.4 32-32 32H240z m224-144H272v80h192v-80zM736 384c-123.2 0-224-100.8-224-224s100.8-224 224-224 224 100.8 224 224-100.8 224-224 224z m0-384c-88 0-160 72-160 160s72 160 160 160 160-72 160-160-72-160-160-160z"  horiz-adv-x="1024" />

    
    <glyph glyph-name="resume-of-events" unicode="&#59144;" d="M864 755.2h-96V800c0 17.6-14.4 32-32 32s-32-14.4-32-32v-44.8H320V800c0 17.6-14.4 32-32 32s-32-14.4-32-32v-44.8h-92.8c-52.8 0-96-43.2-96-96v-622.4c0-52.8 43.2-96 96-96H864c52.8 0 96 43.2 96 96V657.6c0 54.4-43.2 97.6-96 97.6z m-700.8-64H256V640c0-17.6 14.4-32 32-32s32 14.4 32 32v51.2h384V640c0-17.6 14.4-32 32-32s32 14.4 32 32v51.2h96c17.6 0 32-14.4 32-32V576H129.6v81.6c0 19.2 16 33.6 33.6 33.6z m700.8-688H163.2c-17.6 0-32 14.4-32 32V512H896v-476.8c0-17.6-14.4-32-32-32zM208 368h464c17.6 0 32 14.4 32 32s-14.4 32-32 32H208c-17.6 0-32-14.4-32-32s14.4-32 32-32zM736 144H208c-17.6 0-32-14.4-32-32s14.4-32 32-32h528c17.6 0 32 14.4 32 32s-14.4 32-32 32zM208 224h336c17.6 0 32 14.4 32 32s-14.4 32-32 32H208c-17.6 0-32-14.4-32-32s14.4-32 32-32z"  horiz-adv-x="1024" />

    
    <glyph glyph-name="the-management-of-events" unicode="&#59145;" d="M897.6 188.79999999999995l51.2 12.8c4.8 1.6 8 3.2 9.6 8 1.6 3.2 3.2 8 1.6 12.8l-9.6 36.8c-1.6 4.8-3.2 8-8 9.6-3.2 1.6-8 3.2-12.8 1.6L880 256c-4.8 8-9.6 16-16 24l33.6 40c3.2 3.2 4.8 8 3.2 11.2 0 4.8-3.2 8-6.4 11.2l-28.8 24c-3.2 3.2-8 4.8-11.2 3.2-4.8 0-8-3.2-11.2-6.4l-33.6-40c-12.8 6.4-25.6 11.2-40 14.4v52.8c0 4.8-1.6 8-4.8 11.2-3.2 3.2-6.4 4.8-11.2 4.8h-36.8c-4.8 0-8-1.6-11.2-4.8-3.2-3.2-4.8-6.4-4.8-11.2v-52.8c-9.6-1.6-17.6-4.8-27.2-8l-30.4 43.2c-3.2 3.2-6.4 6.4-9.6 6.4-4.8 0-8 0-12.8-3.2L592 356.79999999999995c-3.2-3.2-6.4-6.4-6.4-9.6s0-8 3.2-12.8l30.4-43.2c-6.4-6.4-12.8-14.4-17.6-22.4l-49.6 17.6c-8 3.2-17.6-1.6-20.8-9.6l-12.8-35.2c-3.2-8 1.6-17.6 9.6-20.8l49.6-17.6c-1.6-6.4-1.6-14.4-1.6-20.8v-8l-51.2-12.8c-4.8-1.6-8-3.2-9.6-8-3.2-3.2-3.2-8-3.2-11.2l9.6-36.8c1.6-4.8 3.2-8 8-9.6 3.2-1.6 8-3.2 12.8-1.6l51.2 12.8c4.8-8 9.6-16 16-24L576 43.200000000000045c-3.2-3.2-4.8-8-3.2-11.2 0-4.8 3.2-8 6.4-11.2l28.8-24c3.2-3.2 8-4.8 11.2-3.2 4.8 0 8 3.2 11.2 6.4l33.6 40c12.8-6.4 25.6-11.2 40-14.4v-52.8c0-4.8 1.6-8 4.8-11.2 3.2-3.2 6.4-4.8 11.2-4.8h36.8c4.8 0 8 1.6 11.2 4.8 3.2 3.2 4.8 6.4 4.8 11.2v51.2c9.6 1.6 17.6 4.8 27.2 8l30.4-43.2c3.2-3.2 6.4-6.4 9.6-6.4 4.8 0 8 0 12.8 3.2l30.4 20.8c3.2 3.2 6.4 6.4 6.4 9.6 0 4.8 0 8-3.2 12.8l-30.4 43.2c6.4 6.4 12.8 14.4 17.6 22.4l49.6-17.6c8-3.2 17.6 1.6 20.8 9.6l12.8 35.2c1.6 4.8 1.6 8 0 12.8-1.6 4.8-4.8 6.4-9.6 8L896 161.60000000000002c1.6 6.4 1.6 14.4 1.6 20.8v6.4zM736 84.79999999999995c-52.8 0-97.6 43.2-97.6 97.6 0 52.8 43.2 97.6 97.6 97.6 52.8 0 97.6-43.2 97.6-97.6 0-54.4-43.2-97.6-97.6-97.6zM512 0H160c-17.6 0-32 14.4-32 32V480h720v-32c0-17.6 14.4-32 32-32s32 14.4 32 32V656c0 52.8-43.2 96-96 96h-112V800c0 17.6-14.4 32-32 32s-32-14.4-32-32v-48H320V800c0 17.6-14.4 32-32 32s-32-14.4-32-32v-48h-96c-52.8 0-96-43.2-96-96v-624c0-52.8 43.2-96 96-96h352c17.6 0 32 14.4 32 32s-14.4 32-32 32zM160 688h96v-48c0-17.6 14.4-32 32-32s32 14.4 32 32v48h320v-48c0-17.6 14.4-32 32-32s32 14.4 32 32v48h112c17.6 0 32-14.4 32-32v-112H128v112c0 17.6 14.4 32 32 32zM512 336c0 17.6-14.4 32-32 32H224c-17.6 0-32-14.4-32-32s14.4-32 32-32h256c17.6 0 32 14.4 32 32zM224 192c-17.6 0-32-14.4-32-32s14.4-32 32-32h208c17.6 0 32 14.4 32 32s-14.4 32-32 32H224z"  horiz-adv-x="1024" />

    
    <glyph glyph-name="edit-time-in-batch" unicode="&#59146;" d="M392 678.4c-17.6 0-32-14.4-32-32v-144l-64-75.2c-11.2-12.8-9.6-33.6 4.8-44.8 6.4-4.8 12.8-8 20.8-8 9.6 0 17.6 3.2 24 11.2l70.4 84.8c4.8 6.4 8 12.8 8 20.8v155.2c0 17.6-14.4 32-32 32zM966.4 644.8c-3.2 22.4-16 41.6-35.2 54.4l-41.6 28.8c-38.4 27.2-91.2 17.6-118.4-20.8l-192-276.8c-4.8-6.4-6.4-16-4.8-24s6.4-16 12.8-20.8l128-89.6c4.8-3.2 12.8-6.4 17.6-6.4 9.6 0 20.8 4.8 25.6 14.4l164.8 235.2 28.8 41.6c12.8 19.2 17.6 41.6 14.4 64z m-113.6 30.4l41.6-28.8c4.8-3.2 8-8 8-12.8s0-11.2-3.2-16l-11.2-16-75.2 52.8 11.2 16c6.4 9.6 20.8 11.2 28.8 4.8z m-128-307.2l-75.2 52.8 128 182.4 75.2-52.8-128-182.4zM524.8 347.20000000000005l-11.2-150.4c0-11.2 4.8-22.4 12.8-28.8 4.8-3.2 11.2-6.4 17.6-6.4 4.8 0 9.6 1.6 12.8 3.2l137.6 60.8c11.2 4.8 17.6 14.4 19.2 25.6 1.6 11.2-4.8 22.4-12.8 28.8l-128 89.6c-9.6 6.4-22.4 8-32 3.2-8-4.8-14.4-14.4-16-25.6z m60.8-60.8l35.2-24-38.4-17.6 3.2 41.6zM176 272c8 0 16 3.2 22.4 8 12.8 12.8 14.4 32 1.6 44.8-38.4 41.6-60.8 92.8-68.8 147.2h24c17.6 0 32 14.4 32 32s-14.4 32-32 32H131.2C145.6 656 240 752 360 766.4v-25.6c0-17.6 14.4-32 32-32s32 14.4 32 32V766.4c76.8-9.6 147.2-51.2 190.4-116.8 9.6-14.4 28.8-19.2 44.8-9.6 14.4 9.6 19.2 28.8 9.6 44.8C608 777.6 505.6 833.6 395.2 833.6c-180.8 0-328-147.2-328-328 0-83.2 32-163.2 88-224 3.2-6.4 12.8-9.6 20.8-9.6zM950.4 195.20000000000005c0 14.4-9.6 27.2-24 30.4l-126.4 32c-17.6 4.8-35.2-6.4-38.4-22.4-4.8-17.6 6.4-35.2 22.4-38.4l17.6-4.8-291.2-91.2L220.8 192l260.8 68.8c17.6 4.8 27.2 22.4 22.4 38.4-4.8 17.6-22.4 27.2-38.4 22.4L97.6 224c-14.4-3.2-24-16-24-30.4 0-14.4 8-27.2 22.4-32L152 144l-54.4-14.4c-14.4-3.2-24-16-24-30.4 0-14.4 8-27.2 22.4-32l403.2-126.4c3.2-1.6 6.4-1.6 9.6-1.6 3.2 0 6.4 0 9.6 1.6L928 70.39999999999998c14.4 4.8 22.4 17.6 22.4 32 0 14.4-9.6 27.2-24 30.4l-56 14.4 57.6 17.6c12.8 3.2 22.4 16 22.4 30.4z m-184-88l35.2-9.6-291.2-91.2-289.6 91.2 46.4 12.8 233.6-73.6c3.2-1.6 6.4-1.6 9.6-1.6 3.2 0 6.4 0 9.6 1.6l238.4 73.6c1.6-1.6 4.8-3.2 8-3.2z"  horiz-adv-x="1024" />

    
    <glyph glyph-name="resume-of-equipment-signal" unicode="&#59147;" d="M304 0H158.4c-16 0-30.4 14.4-30.4 30.4V737.6C128 753.6 142.4 768 158.4 768H736c17.6 0 32-14.4 32-30.4V592c0-17.6 14.4-32 32-32s32 14.4 32 32V737.6C832 788.8 788.8 832 737.6 832H158.4C107.2 832 64 788.8 64 737.6v-707.2C64-20.799999999999955 107.2-64 158.4-64H304c17.6 0 32 14.4 32 32s-14.4 32-32 32zM240 512h288c27.2 0 48 22.4 48 48v96c0 27.2-22.4 48-48 48H240c-27.2 0-48-22.4-48-48v-96c0-25.6 22.4-48 48-48z m16 128h256v-64H256v64zM848 235.20000000000005V294.4c36.8 12.8 64 48 64 89.6 0 52.8-43.2 96-96 96s-96-43.2-96-96c0-41.6 27.2-76.8 64-89.6V240H504c-83.2 0-152-68.8-152-152s68.8-152 152-152h304c83.2 0 152 68.8 152 152 0 70.4-48 129.6-112 147.2zM816 416c17.6 0 32-14.4 32-32s-14.4-32-32-32-32 14.4-32 32 14.4 32 32 32z m-8-416h-304c-48 0-88 40-88 88s40 88 88 88h304c48 0 88-40 88-88S856 0 808 0zM520 88m-72 0a72 72 0 1 1 144 0 72 72 0 1 1-144 0ZM640 416c0 17.6-14.4 32-32 32H224c-17.6 0-32-14.4-32-32s14.4-32 32-32h384c17.6 0 32 14.4 32 32zM224 192c-17.6 0-32-14.4-32-32s14.4-32 32-32h64c17.6 0 32 14.4 32 32s-14.4 32-32 32h-64zM432 288c0 17.6-14.4 32-32 32H224c-17.6 0-32-14.4-32-32s14.4-32 32-32h176c17.6 0 32 14.4 32 32z"  horiz-adv-x="1024" />

    
    <glyph glyph-name="resume-of-equipment-events-new" unicode="&#59148;" d="M960 184c0 83.2-68.8 152-152 152h-304c-73.6 0-134.4-52.8-148.8-121.6-40-27.2-67.2-73.6-67.2-126.4 0-83.2 68.8-152 152-152h304c73.6 0 134.4 52.8 148.8 121.6 41.6 28.8 67.2 75.2 67.2 126.4zM744 0h-304c-48 0-88 40-88 88s40 88 88 88h304c48 0 88-40 88-88S792 0 744 0z m140.8 142.4C864 200 808 240 744 240H436.8c16 19.2 40 32 67.2 32h304c48 0 88-40 88-88 0-14.4-3.2-28.8-11.2-41.6zM456 88m-72 0a72 72 0 1 1 144 0 72 72 0 1 1-144 0ZM704 416c0 17.6-14.4 32-32 32H224c-17.6 0-32-14.4-32-32s14.4-32 32-32h448c17.6 0 32 14.4 32 32zM240 192h-16c-17.6 0-32-14.4-32-32s14.4-32 32-32h16c17.6 0 32 14.4 32 32s-14.4 32-32 32zM224 320c-17.6 0-32-14.4-32-32s14.4-32 32-32h64c17.6 0 32 14.4 32 32s-14.4 32-32 32h-64zM240 0H158.4c-16 0-30.4 14.4-30.4 30.4V737.6C128 753.6 142.4 768 158.4 768H736c17.6 0 32-14.4 32-30.4V416c0-17.6 14.4-32 32-32s32 14.4 32 32V737.6C832 788.8 788.8 832 737.6 832H158.4C107.2 832 64 788.8 64 737.6v-707.2C64-20.799999999999955 107.2-64 158.4-64H240c17.6 0 32 14.4 32 32s-14.4 32-32 32zM240 512h288c27.2 0 48 22.4 48 48v96c0 27.2-22.4 48-48 48H240c-27.2 0-48-22.4-48-48v-96c0-25.6 22.4-48 48-48z m16 128h256v-64H256v64z"  horiz-adv-x="1024" />

    
    <glyph glyph-name="resume-of-signal" unicode="&#59149;" d="M916.8-22.399999999999977m-48 0a48 48 0 1 1 96 0 48 48 0 1 1-96 0ZM958.4 148.79999999999995c-54.4 0-108.8-19.2-150.4-60.8-41.6-41.6-62.4-96-60.8-150.4h60.8c0 38.4 12.8 78.4 43.2 107.2 28.8 28.8 68.8 43.2 107.2 43.2v60.8zM958.4 196.79999999999995v60.8c-83.2 0-164.8-30.4-228.8-92.8s-94.4-145.6-92.8-228.8h60.8c0 67.2 24 134.4 75.2 185.6s118.4 75.2 185.6 75.2zM955.2 307.20000000000005h3.2V368h-3.2c-126.4 0-244.8-54.4-326.4-150.4-67.2-80-100.8-180.8-100.8-281.6h60.8c0 86.4 28.8 171.2 86.4 240 70.4 83.2 172.8 131.2 280 131.2zM704 416c0 17.6-14.4 32-32 32H224c-17.6 0-32-14.4-32-32s14.4-32 32-32h448c17.6 0 32 14.4 32 32zM480 192H224c-17.6 0-32-14.4-32-32s14.4-32 32-32h256c17.6 0 32 14.4 32 32s-14.4 32-32 32zM224 320c-17.6 0-32-14.4-32-32s14.4-32 32-32h336c17.6 0 32 14.4 32 32s-14.4 32-32 32H224zM416 0H158.4c-16 0-30.4 14.4-30.4 30.4V737.6C128 753.6 142.4 768 158.4 768H736c17.6 0 32-14.4 32-30.4V464c0-17.6 14.4-32 32-32s32 14.4 32 32V737.6C832 788.8 788.8 832 737.6 832H158.4C107.2 832 64 788.8 64 737.6v-707.2C64-20.799999999999955 107.2-64 158.4-64H416c17.6 0 32 14.4 32 32s-14.4 32-32 32zM240 512h288c27.2 0 48 22.4 48 48v96c0 27.2-22.4 48-48 48H240c-27.2 0-48-22.4-48-48v-96c0-25.6 22.4-48 48-48z m16 128h256v-64H256v64z"  horiz-adv-x="1024" />

    
    <glyph glyph-name="management-of-signal" unicode="&#59150;" d="M897.6 172.79999999999995l51.2 12.8c4.8 1.6 8 3.2 9.6 8 1.6 3.2 3.2 8 1.6 12.8l-9.6 36.8c-1.6 4.8-3.2 8-8 9.6-3.2 1.6-8 3.2-12.8 1.6L880 240c-4.8 8-9.6 16-16 24l33.6 40c3.2 3.2 4.8 8 3.2 11.2 0 4.8-3.2 8-6.4 11.2l-28.8 24c-3.2 3.2-8 4.8-11.2 3.2-4.8 0-8-3.2-11.2-6.4l-33.6-40c-12.8 6.4-25.6 11.2-40 14.4v52.8c0 4.8-1.6 8-4.8 11.2-3.2 3.2-6.4 4.8-11.2 4.8h-36.8c-4.8 0-8-1.6-11.2-4.8-3.2-3.2-4.8-6.4-4.8-11.2v-52.8c-9.6-1.6-17.6-4.8-27.2-8l-30.4 43.2c-3.2 3.2-6.4 6.4-9.6 6.4-4.8 0-8 0-12.8-3.2L592 340.79999999999995c-3.2-3.2-6.4-6.4-6.4-9.6s0-8 3.2-12.8l30.4-43.2c-6.4-6.4-12.8-14.4-17.6-22.4l-49.6 17.6c-8 3.2-17.6-1.6-20.8-9.6l-12.8-35.2c-3.2-8 1.6-17.6 9.6-20.8l49.6-17.6c-1.6-6.4-1.6-14.4-1.6-20.8v-8l-51.2-12.8c-4.8-1.6-8-3.2-9.6-8-3.2-3.2-3.2-8-3.2-11.2l9.6-36.8c1.6-4.8 3.2-8 8-9.6 3.2-1.6 8-3.2 12.8-1.6l51.2 12.8c4.8-8 9.6-16 16-24L576 27.200000000000045c-3.2-3.2-4.8-8-3.2-11.2 0-4.8 3.2-8 6.4-11.2l28.8-24c3.2-3.2 8-4.8 11.2-3.2 4.8 0 8 3.2 11.2 6.4l33.6 40c12.8-6.4 25.6-11.2 40-14.4v-52.8c0-4.8 1.6-8 4.8-11.2 3.2-3.2 6.4-4.8 11.2-4.8h36.8c4.8 0 8 1.6 11.2 4.8 3.2 3.2 4.8 6.4 4.8 11.2v51.2c9.6 1.6 17.6 4.8 27.2 8l30.4-43.2c3.2-3.2 6.4-6.4 9.6-6.4 4.8 0 8 0 12.8 3.2l30.4 20.8c3.2 3.2 6.4 6.4 6.4 9.6 0 4.8 0 8-3.2 12.8l-30.4 43.2c6.4 6.4 12.8 14.4 17.6 22.4l49.6-17.6c8-3.2 17.6 1.6 20.8 9.6l12.8 35.2c1.6 4.8 1.6 8 0 12.8-1.6 4.8-4.8 6.4-9.6 8L896 145.60000000000002c1.6 6.4 1.6 14.4 1.6 20.8v6.4zM736 68.79999999999995c-52.8 0-97.6 43.2-97.6 97.6 0 52.8 43.2 97.6 97.6 97.6 52.8 0 97.6-43.2 97.6-97.6 0-54.4-43.2-97.6-97.6-97.6zM500.8 390.4m-54.4 0a54.4 54.4 0 1 1 108.8 0 54.4 54.4 0 1 1-108.8 0ZM547.2 582.4c-60.8 0-123.2-22.4-169.6-68.8s-68.8-108.8-68.8-169.6h68.8c0 43.2 16 88 48 120 33.6 33.6 76.8 49.6 120 48v70.4zM547.2 636.8v68.8c-92.8 0-185.6-33.6-256-104s-105.6-163.2-104-256H256c0 75.2 27.2 150.4 84.8 208 56 56 131.2 84.8 206.4 83.2zM276.8 662.4c76.8 65.6 174.4 97.6 270.4 97.6V828.8c-112 0-225.6-36.8-315.2-113.6-107.2-92.8-169.6-225.6-169.6-368v-3.2h68.8v3.2c0 121.6 52.8 236.8 145.6 315.2z"  horiz-adv-x="1024" />

    
    <glyph glyph-name="resume-of-error-with-tag" unicode="&#59151;" d="M704 448c-140.8 0-256-115.2-256-256s115.2-256 256-256 256 115.2 256 256-115.2 256-256 256z m0-448c-105.6 0-192 86.4-192 192s86.4 192 192 192 192-86.4 192-192-86.4-192-192-192zM819.2 299.20000000000005c-12.8 12.8-32 12.8-44.8 0l-62.4-62.4-62.4 62.4c-12.8 12.8-32 12.8-44.8 0-12.8-12.8-12.8-32 0-44.8l62.4-62.4-62.4-62.4c-12.8-12.8-12.8-32 0-44.8 6.4-6.4 14.4-9.6 22.4-9.6s16 3.2 22.4 9.6l62.4 62.4 62.4-62.4c6.4-6.4 14.4-9.6 22.4-9.6s16 3.2 22.4 9.6c12.8 12.8 12.8 32 0 44.8L756.8 192l62.4 62.4c12.8 12.8 12.8 32 0 44.8zM480 416c0 17.6-14.4 32-32 32H224c-17.6 0-32-14.4-32-32s14.4-32 32-32h224c17.6 0 32 14.4 32 32zM224 192c-17.6 0-32-14.4-32-32s14.4-32 32-32h144c17.6 0 32 14.4 32 32s-14.4 32-32 32h-144zM416 288c0 17.6-14.4 32-32 32H224c-17.6 0-32-14.4-32-32s14.4-32 32-32h160c17.6 0 32 14.4 32 32zM448 0H158.4c-16 0-30.4 14.4-30.4 30.4V737.6C128 753.6 142.4 768 158.4 768H736c17.6 0 32-14.4 32-30.4V528c0-17.6 14.4-32 32-32s32 14.4 32 32V737.6C832 788.8 788.8 832 737.6 832H158.4C107.2 832 64 788.8 64 737.6V32c0-52.8 43.2-96 94.4-96H448c17.6 0 32 14.4 32 32s-14.4 32-32 32zM576 560v96c0 27.2-22.4 48-48 48H240c-27.2 0-48-22.4-48-48v-96c0-27.2 22.4-48 48-48h288c25.6 0 48 22.4 48 48z m-64 16H256v64h256v-64z"  horiz-adv-x="1024" />

    
    <glyph glyph-name="about-version" unicode="&#59092;" d="M832 704h-108.8V800c0 17.6-14.4 32-32 32h-544c-17.6 0-32-14.4-32-32v-716.8c0-17.6 14.4-32 32-32H240v-96c0-17.6 14.4-32 32-32h560c17.6 0 32 14.4 32 32V672c0 17.6-14.4 32-32 32zM179.2 115.20000000000005V768h480v-64H272c-17.6 0-32-14.4-32-32v-556.8h-60.8z m620.8-128H304V640h496v-652.8z"  horiz-adv-x="1024" />

    
    <glyph glyph-name="about-me" unicode="&#59104;" d="M617.6 456C670.4 492.8 704 555.2 704 624c0 115.2-92.8 208-208 208S288 739.2 288 624c0-75.2 40-139.2 99.2-176C227.2 376 112 174.39999999999998 112-64h800c0 248-124.8 457.6-294.4 520z"  horiz-adv-x="1024" />

    
    <glyph glyph-name="query" unicode="&#59105;" d="M939.2 3.2000000000000455L686.4 254.39999999999998C737.6 315.20000000000005 768 395.2 768 480c0 193.6-158.4 352-352 352S64 673.6 64 480s158.4-352 352-352c84.8 0 164.8 30.4 225.6 81.6l252.8-252.8c6.4-6.4 14.4-9.6 22.4-9.6s16 3.2 22.4 9.6c12.8 12.8 12.8 33.6 0 46.4zM416 192c-158.4 0-288 129.6-288 288S257.6 768 416 768s288-129.6 288-288-129.6-288-288-288z"  horiz-adv-x="1024" />

    
    <glyph glyph-name="return-to-stroage" unicode="&#59132;" d="M448 728l336-246.4V416c0-17.6 14.4-32 32-32s32 14.4 32 32v81.6 1.6 3.2 3.2c0 1.6 0 1.6-1.6 3.2 0 1.6-1.6 1.6-1.6 3.2s-1.6 1.6-1.6 3.2-1.6 1.6-1.6 3.2-1.6 1.6-1.6 1.6c0 1.6-1.6 1.6-3.2 1.6l-1.6 1.6-368 270.4c-11.2 8-27.2 8-38.4 0l-368-270.4-1.6-1.6-1.6-1.6v-1.6s0-1.6-1.6-1.6l-3.2-3.2s0-1.6-1.6-1.6c0-1.6-1.6-1.6-1.6-3.2v-3.2c0-1.6 0-1.6-1.6-3.2v-500.8c0-17.6 14.4-32 32-32h336c17.6 0 32 14.4 32 32s-14.4 32-32 32H112v448l336 246.4zM952 124.79999999999995l1.6 1.6c1.6 1.6 1.6 3.2 1.6 3.2s0 1.6 1.6 1.6c0 1.6 1.6 3.2 1.6 4.8v1.6 6.4 6.4 1.6c0 1.6-1.6 3.2-1.6 4.8 0 0 0 1.6-1.6 1.6 0 1.6-1.6 3.2-1.6 3.2l-1.6 1.6-3.2 3.2-158.4 145.6c-12.8 11.2-33.6 11.2-44.8-1.6-11.2-12.8-11.2-33.6 1.6-44.8l97.6-89.6H512c-17.6 0-32-14.4-32-32s14.4-32 32-32h334.4l-97.6-89.6c-12.8-11.2-14.4-32-1.6-44.8 6.4-6.4 14.4-9.6 24-9.6 8 0 16 3.2 22.4 8l158.4 145.6c-1.6 1.6 0 3.2 0 3.2z"  horiz-adv-x="1024" />

    
    <glyph glyph-name="post-switching" unicode="&#59133;" d="M952 459.2l3.2 3.2c0 1.6 1.6 1.6 1.6 3.2s1.6 1.6 1.6 3.2 0 1.6 1.6 3.2c0 1.6 0 1.6 1.6 3.2v3.2 1.6 4.8 1.6c0 1.6-1.6 3.2-1.6 4.8 0 1.6-1.6 1.6-1.6 3.2s-1.6 1.6-1.6 3.2l-1.6 1.6-3.2 3.2L656 790.4c-12.8 12.8-33.6 12.8-44.8 0-12.8-12.8-12.8-33.6 0-44.8l240-233.6H96c-17.6 0-32-14.4-32-32s14.4-32 32-32h838.4c1.6 0 1.6 0 3.2 1.6h3.2c1.6 1.6 3.2 1.6 4.8 3.2 1.6 1.6 3.2 3.2 4.8 3.2 0 1.6 0 1.6 1.6 3.2 0-1.6 0 0 0 0zM912 320H73.6c-1.6 0-1.6 0-3.2-1.6-1.6 0-1.6 0-3.2-1.6-1.6 0-1.6-1.6-3.2-1.6s-1.6-1.6-3.2-1.6l-1.6-1.6c-1.6 0-1.6-1.6-3.2-3.2l-1.6-1.6c0-1.6-1.6-1.6-1.6-3.2s-1.6-1.6-1.6-3.2-1.6-1.6-1.6-3.2 0-1.6-1.6-3.2V280c0-1.6 0-1.6 1.6-3.2 0-1.6 0-1.6 1.6-3.2 0-1.6 1.6-1.6 1.6-3.2s1.6-1.6 1.6-3.2l1.6-1.6c0-1.6 1.6-1.6 3.2-3.2l312-288c6.4-6.4 14.4-8 22.4-8 8 0 17.6 3.2 24 9.6 11.2 12.8 11.2 33.6-1.6 44.8L161.6 256H912c17.6 0 32 14.4 32 32s-14.4 32-32 32z"  horiz-adv-x="1024" />

    
    <glyph glyph-name="Phama" unicode="&#59134;" d="M486.4 67.2C291.2-25.6 131.2-4.8 80 6.4V-48h206.4c204.8 88 200 115.2 200 115.2zM480 505.6s115.2 155.2-139.2 160c0 0-171.2-12.8-262.4-89.6v-260.8C128 321.6 361.6 364.8 480 505.6zM312-48h124.8c80 48 137.6 104 137.6 104-88-52.8-196.8-86.4-262.4-104zM80 816v-228.8c67.2 57.6 270.4 206.4 496 158.4 0 0 196.8-51.2 110.4-252.8 0 0-76.8-152-334.4-236.8 0 0 68.8 43.2 83.2 67.2 0 0-81.6-48-160-67.2 0 0 43.2 32 52.8 43.2 0 0-62.4-48-196.8-43.2 0 0 201.6 62.4 230.4 97.6 0 0-137.6-67.2-283.2-56v-288c65.6 4.8 88 12.8 88 12.8 329.6 51.2 504 272 504 272 123.2 148.8-4.8 161.6-4.8 161.6l11.2 16c40 20.8 131.2-1.6 131.2-1.6 147.2-67.2 44.8-248 44.8-248C748.8 57.6 536-24 460.8-48H944V816H80z"  horiz-adv-x="1024" />

    
    <glyph glyph-name="ip-of-mine" unicode="&#59135;" d="M384 640c-17.6 0-32-14.4-32-32v-320c0-17.6 14.4-32 32-32s32 14.4 32 32V608c0 17.6-14.4 32-32 32zM512 832c-193.6 0-352-158.4-352-352 0-184 304-505.6 337.6-540.8 6.4-6.4 14.4-9.6 22.4-9.6 9.6 0 17.6 3.2 24 11.2 14.4 12.8 320 352 320 539.2 0 193.6-158.4 352-352 352z m8-824C419.2 118.39999999999998 224 356.79999999999995 224 480c0 158.4 129.6 288 288 288s288-129.6 288-288c0-123.2-184-361.6-280-472zM640 640h-128c-17.6 0-32-14.4-32-32v-320c0-17.6 14.4-32 32-32s32 14.4 32 32v128h96c62.4 0 112 49.6 112 112s-49.6 112-112 112z m0-160h-96v96h96c27.2 0 48-20.8 48-48s-20.8-48-48-48z"  horiz-adv-x="1024" />

    
    <glyph glyph-name="change-storage" unicode="&#59136;" d="M907.2 102.39999999999998s0 1.6 1.6 1.6c0 1.6 1.6 3.2 1.6 4.8v1.6 6.4 6.4 1.6c0 1.6-1.6 3.2-1.6 4.8 0 0 0 1.6-1.6 1.6 0 1.6-1.6 3.2-1.6 3.2l-1.6 1.6-3.2 3.2-158.4 145.6c-12.8 11.2-33.6 11.2-44.8-1.6-11.2-12.8-11.2-33.6 1.6-44.8l97.6-89.6H526.4c-17.6 0-32-14.4-32-32s14.4-32 32-32h270.4l-97.6-89.6c-12.8-11.2-14.4-32-1.6-44.8 6.4-6.4 14.4-9.6 24-9.6 8 0 16 3.2 22.4 8l158.4 145.6 3.2 3.2 1.6 1.6c-1.6 0-1.6 1.6 0 3.2zM398.4 384h-224c-17.6 0-32-14.4-32-32v-396.8c0-17.6 14.4-32 32-32h224c17.6 0 32 14.4 32 32V352c0 17.6-14.4 32-32 32z m-32-396.8h-160V320h160v-332.8zM280 502.4c6.4-6.4 14.4-8 22.4-8 8 0 17.6 3.2 24 9.6 11.2 12.8 11.2 33.6-1.6 44.8l-97.6 89.6H496c17.6 0 32 14.4 32 32s-14.4 32-32 32H225.6l97.6 89.6c12.8 11.2 14.4 32 1.6 44.8-11.2 12.8-32 14.4-44.8 1.6l-158.4-145.6-3.2-3.2-1.6-1.6c-1.6-1.6-1.6-3.2-1.6-3.2s0-1.6-1.6-1.6c0-1.6-1.6-3.2-1.6-4.8v-16c0-1.6 1.6-3.2 1.6-4.8 0 0 0-1.6 1.6-1.6 0-1.6 1.6-3.2 1.6-3.2l1.6-1.6 3.2-3.2 158.4-145.6zM880 864H656c-17.6 0-32-14.4-32-32v-396.8c0-17.6 14.4-32 32-32h224c17.6 0 32 14.4 32 32V832c0 17.6-14.4 32-32 32z m-32-396.8H688V800h160v-332.8z"  horiz-adv-x="1024" />

    
    <glyph glyph-name="order" unicode="&#59137;" d="M838.4 552c-20.8 0-36.8-4.8-52.8-16-11.2 36.8-48 68.8-89.6 68.8-20.8 0-36.8-4.8-52.8-16-11.2 36.8-48 68.8-89.6 68.8-16 0-32-4.8-48-11.2v96c0 52.8-41.6 94.4-94.4 94.4-52.8 0-99.2-41.6-99.2-94.4v-379.2l-57.6 57.6c-36.8 36.8-105.6 32-136 0-32-32-52.8-99.2-4.8-142.4l289.6-289.6c48-41.6 105.6-62.4 225.6-62.4 273.6 0 299.2 147.2 299.2 331.2V452.8c4.8 52.8-36.8 99.2-89.6 99.2z"  horiz-adv-x="1024" />

    
    <glyph glyph-name="form-config-history" unicode="&#59106;" d="M480 0H163.04A33.6 33.6 0 0 0 128 32V736a33.6 33.6 0 0 0 35.04 32h569.92A33.6 33.6 0 0 0 768 736v-288a32 32 0 0 1 64 0V736a97.6 97.6 0 0 1-99.04 96H163.04A97.6 97.6 0 0 1 64 736v-704a97.6 97.6 0 0 1 99.04-96H480a32 32 0 0 1 0 64zM704 608a32 32 0 0 1-32 32H224a32 32 0 0 1 0-64h448a32 32 0 0 1 32 32zM640 458.72a32 32 0 0 1-32 32H224a32 32 0 1 1 0-64h384a32 32 0 0 1 32 32zM485.12 309.28a32 32 0 0 1-32 32H224a32 32 0 0 1 0-64h229.12a32 32 0 0 1 32 32zM224 192a32 32 0 0 1 0-64h192a32 32 0 0 1 0 64zM752 352a208 208 0 1 1 208-208 208 208 0 0 1-208 208z m0-368a160 160 0 1 0 160 160 160 160 0 0 0-160-160zM840 125.27999999999997l-75.36 20.48-1.6 119.36a16 16 0 0 1-16 16 16 16 0 0 1-16-16l1.76-131.36a16 16 0 0 1 11.84-16L832 94.39999999999998a16 16 0 1 1 8.32 30.88z"  horiz-adv-x="1024" />

    
    <glyph glyph-name="change-log" unicode="&#59107;" d="M448 0H160a32 32 0 0 0-32 32V736a32 32 0 0 0 32 32h576a32 32 0 0 0 32-32v-112a32 32 0 0 1 64 0v112a96 96 0 0 1-96 96H160a96 96 0 0 1-96-96v-704a96 96 0 0 1 96-96h288a32 32 0 0 1 0 64zM704 640a32 32 0 0 1-32 32H224a32 32 0 0 1 0-64h448a32 32 0 0 1 32 32zM512 480a32 32 0 0 1-32 32H224a32 32 0 0 1 0-64h256a32 32 0 0 1 32 32zM336 352h-112a32 32 0 0 1 0-64h112a32 32 0 0 1 0 64zM336 192h-112a32 32 0 0 1 0-64h112a32 32 0 0 1 0 64zM608 195.03999999999996a32 32 0 0 1-41.12-48.96L625.92 96a146.24 146.24 0 0 0-77.44 272 32 32 0 1 1-32 55.2A210.4 210.4 0 0 1 622.72 32H624l-42.72-50.88a32 32 0 0 1 48.96-41.12l96 113.76a32 32 0 0 1-4 45.12zM897.12 328.48a208 208 0 0 1-181.44 100.48L758.56 480a32 32 0 1 1-48.96 41.12l-96-113.76a32 32 0 0 1 4-45.12l113.76-96a32 32 0 1 1 41.12 48.96l-58.56 49.12a147.04 147.04 0 0 0 37.6-4 146.24 146.24 0 0 0 40.32-267.52 32 32 0 1 1 32-55.2 210.24 210.24 0 0 1 72.96 290.88z"  horiz-adv-x="1024" />

    
    <glyph glyph-name="menu-management" unicode="&#59108;" d="M192 832H112a48 48 0 0 1 0-96h80a48 48 0 0 1 0 96zM400 736h512a48 48 0 0 1 0 96H400a48 48 0 0 1 0-96zM192 432H112a48 48 0 0 1 0-96h80a48 48 0 0 1 0 96zM912 432H400a48 48 0 0 1 0-96h512a48 48 0 0 1 0 96zM192 32H112a48 48 0 0 1 0-96h80a48 48 0 0 1 0 96zM912 32H400a48 48 0 0 1 0-96h512a48 48 0 0 1 0 96z"  horiz-adv-x="1024" />

    
    <glyph glyph-name="attach-management" unicode="&#59109;" d="M944 101.44000000000005l-43.52 16a144 144 0 0 1 1.44 18.72v6.4l44.8 12a14.24 14.24 0 0 1 10.08 17.44l-8.48 32a14.24 14.24 0 0 1-17.44 10.08l-44.64-12a142.72 142.72 0 0 1-13.6 21.12l29.76 35.52a14.24 14.24 0 0 1-1.76 20.16l-25.28 21.12a14.24 14.24 0 0 1-20.16-1.76l-29.76-35.52a141.76 141.76 0 0 1-35.36 12.8v46.24a14.24 14.24 0 0 1-14.24 14.24h-32.64a14.24 14.24 0 0 1-14.24-14.24v-46.24a141.92 141.92 0 0 1-24-7.52l-26.56 37.76a14.24 14.24 0 0 1-19.84 3.52l-27.04-18.88a14.24 14.24 0 0 1-3.52-19.84l26.56-37.92a143.04 143.04 0 0 1-16-19.84l-43.52 16a14.24 14.24 0 0 1-18.24-8.48l-11.2-31.04a14.24 14.24 0 0 1 8.48-18.24l43.52-16a144 144 0 0 1-1.44-18.72v-6.4l-44.8-12a14.24 14.24 0 0 1-10.08-17.44l8.48-32a14.24 14.24 0 0 1 17.44-10.08l44.64 12a142.56 142.56 0 0 1 13.6-21.12l-29.76-35.52a14.24 14.24 0 0 1 1.76-20.16l25.28-21.12a14.24 14.24 0 0 1 20.16 1.76l29.76 35.52a141.76 141.76 0 0 1 35.36-12.8v-46.24a14.24 14.24 0 0 1 14.24-14.24h32.96a14.24 14.24 0 0 1 14.24 14.24v45.76a141.92 141.92 0 0 1 24 7.52l26.56-37.92a14.24 14.24 0 0 1 19.84-3.52l27.04 18.88a14.24 14.24 0 0 1 3.52 19.84l-26.56 37.92a143.04 143.04 0 0 1 16 19.84l43.52-16a14.24 14.24 0 0 1 18.24 8.48l11.2 31.04a14.24 14.24 0 0 1-8.8 18.88z m-184.32-51.2a85.76 85.76 0 1 0 85.76 85.76 85.76 85.76 0 0 0-85.76-85.76zM732.8 648.48a224 224 0 0 1-403.84 89.6l-64-91.68L94.88 403.84A152.32 152.32 0 0 1 132.16 192l13.12-9.12a150.56 150.56 0 0 1 86.72-27.36 154.4 154.4 0 0 1 26.88 2.4 150.88 150.88 0 0 1 98.08 62.4l13.76 19.68 211.04 301.44a96 96 0 0 1-157.28 110.08L259.36 416a32 32 0 0 1 52.48-36.64l165.12 235.52a32 32 0 0 0 52.48-36.64L332.16 296.32000000000005 304 257.12a88.32 88.32 0 0 0-122.56-21.6l-13.12 9.12a88.16 88.16 0 0 0-21.12 122.56l32 45.92 201.92 288a160 160 0 0 0 262.24-183.2L469.12 268.79999999999995a32 32 0 1 1 52.48-36.64l174.4 248.96a222.4 222.4 0 0 1 36.8 167.36z"  horiz-adv-x="1024" />

    
    <glyph glyph-name="workflow-config" unicode="&#59110;" d="M939.68 275.52l-70.4-70.4-49.76 49.76 70.4 70.4a105.6 105.6 0 0 1-140.8-140.8L558.08-6.399999999999977a17.6 17.6 0 0 1 0-24.96l24.96-24.96a17.6 17.6 0 0 1 24.96 0l190.88 191.04a105.6 105.6 0 0 1 140.8 140.8zM608 304H224v-64h-64a32 32 0 0 0-32 32v128a32 32 0 0 0 32 32h64v-64h384v64h64a96 96 0 0 1 96 96v128a96 96 0 0 1-96 96h-64V816H224v-192h384v64h64a32 32 0 0 0 32-32v-128a32 32 0 0 0-32-32h-64v64H224v-64h-64a96 96 0 0 1-96-96v-128a96 96 0 0 1 96-96h64v-64h384z m-64 384H288V752h256zM288 496h256v-64H288z m0-320v64h256v-64H288z"  horiz-adv-x="1024" />

    
    <glyph glyph-name="sign-management" unicode="&#59111;" d="M928 0H112a32 32 0 0 1 0-64h816a32 32 0 0 1 0 64zM509.44 119.03999999999996l325.44 325.44-192 192-326.08-324.8z m234.88 325.44L509.44 209.60000000000002l-102.08 102.24 234.72 234.72zM936.96 546.56a64 64 0 0 1 0 90.56L834.72 739.2a64 64 0 0 1-90.56 0L656 650.72l192-192z m-147.36 147.36L891.68 592 848 548.64l-102.24 102.24zM294.24 283.52A32 32 0 0 1 272 260l-44.16-192a32 32 0 0 1 38.4-38.4l192 44.16a32 32 0 0 1 16 53.76l-147.36 147.36a32 32 0 0 1-32.64 8.64z m7.36-179.68l19.68 85.44 65.76-65.76zM93.92 543.04l46.56 12.48a148.48 148.48 0 0 1 14.08-22.08L123.52 496a14.88 14.88 0 0 1 1.76-20.96l26.24-22.08a14.88 14.88 0 0 1 20.96 1.76l30.88 36.8a147.36 147.36 0 0 1 36.64-13.44v-48a14.88 14.88 0 0 1 14.88-14.88h34.24a14.88 14.88 0 0 1 14.88 14.88v48a147.52 147.52 0 0 1 24.96 7.84L356.8 448a14.88 14.88 0 0 1 20.64-3.68L405.44 464a14.88 14.88 0 0 1 3.68 20.64l-27.68 39.52a148.96 148.96 0 0 1 16 20.64l45.28-16a14.88 14.88 0 0 1 19.04 8.96l11.68 32a14.88 14.88 0 0 1-9.44 18.24l-45.28 16A149.12 149.12 0 0 1 420.8 624v6.56l46.56 12.48a14.88 14.88 0 0 1 10.56 18.24l-8.8 33.12a14.88 14.88 0 0 1-18.24 10.56l-46.56-12.48a148.48 148.48 0 0 1-14.08 22.08L420.8 752a14.88 14.88 0 0 1-1.76 20.96l-26.24 21.44a14.88 14.88 0 0 1-20.96-1.76L340.8 755.6800000000001a147.52 147.52 0 0 1-36.8 13.28v48a14.88 14.88 0 0 1-14.72 15.04h-34.24a14.88 14.88 0 0 1-14.88-14.88v-48a147.52 147.52 0 0 1-24.96-7.84L187.52 800a14.88 14.88 0 0 1-20.64 3.68L138.88 784a14.88 14.88 0 0 1-3.68-20.64l27.68-39.52a148.96 148.96 0 0 1-16-20.64L101.6 720a14.88 14.88 0 0 1-19.04-8.8l-11.68-32a14.88 14.88 0 0 1 9.12-19.2l45.28-16A149.12 149.12 0 0 1 123.52 624v-6.56l-46.56-12.48a14.88 14.88 0 0 1-10.56-18.24l8.8-33.12a14.88 14.88 0 0 1 18.72-10.56zM272 713.12A89.12 89.12 0 1 0 183.04 624 89.28 89.28 0 0 0 272 713.12z"  horiz-adv-x="1024" />

    
    <glyph glyph-name="summary-report" unicode="&#59112;" d="M544 576a32 32 0 0 1-32 32H224a32 32 0 0 1 0-64h288a32 32 0 0 1 32 32zM224 464a32 32 0 0 1 0-64h208a32 32 0 0 1 0 64zM389.12 320H224a32 32 0 0 1 0-64h165.12a32 32 0 1 1 0 64zM352 176h-128a32 32 0 0 1 0-64h128a32 32 0 0 1 0 64zM304 0h-144a32 32 0 0 0-32 32V704a32 32 0 0 0 32 32h144v-32h288v32h144a32 32 0 0 0 32-32v-80a32 32 0 0 1 64 0v80a96 96 0 0 1-96 96h-144V832H304v-32h-144a96 96 0 0 1-96-96v-672a96 96 0 0 1 96-96h144a32 32 0 0 1 0 64zM796.16 245.44000000000005a176 176 0 1 1-216.32 0C483.52 196.15999999999997 416 83.20000000000005 416-48v-32h544v32c0 131.2-67.52 244.16-163.84 293.44zM576 384a112 112 0 1 0 112-112 112 112 0 0 0-112 112z m-94.4-400c12.8 126.08 100.48 224 206.4 224s193.6-97.92 206.4-224z"  horiz-adv-x="1024" />

    
    <glyph glyph-name="set-value-resume" unicode="&#59113;" d="M393.6 89.91999999999996l76 108.64a32 32 0 0 1-52.48 36.64l-91.52-130.72a32 32 0 0 1 3.84-40.48l117.6-117.6a32 32 0 0 1 45.28 45.28zM950.56 121.91999999999996L832.96 240a32 32 0 0 1-45.28-45.28l96-96-97.28-108.16a32 32 0 1 1 48-42.88l117.6 130.72a32 32 0 0 1-1.44 43.52zM713.6 246.08000000000004a32 32 0 0 1-42.4-16L558.08-17.600000000000023a32 32 0 1 1 58.24-26.56l112.96 247.84a32 32 0 0 1-15.68 42.4zM224 384h448a32 32 0 0 1 0 64H224a32 32 0 0 1 0-64zM373.12 288a32 32 0 0 1-32 32H224a32 32 0 0 1 0-64h117.12a32 32 0 0 1 32 32zM645.12 288a32 32 0 0 1-32 32H528a32 32 0 0 1 0-64h85.12a32 32 0 0 1 32 32zM224 192a32 32 0 0 1 0-64h53.12a32 32 0 1 1 0 64zM832 336V736a96 96 0 0 1-96 96H160a96 96 0 0 1-96-96v-704a96 96 0 0 1 96-96h128a32 32 0 0 1 0 64h-128a32 32 0 0 0-32 32V736a32 32 0 0 0 32 32h576a32 32 0 0 0 32-32v-400a32 32 0 0 1 64 0zM256 512h160a64 64 0 0 1 64 64v64a64 64 0 0 1-64 64H256a64 64 0 0 1-64-64v-64a64 64 0 0 1 64-64z m0 128h160v-64H256z"  horiz-adv-x="1024" />

    
    <glyph glyph-name="set-value-management" unicode="&#59114;" d="M425.28 384l32 22.72a17.12 17.12 0 0 1 4.16 23.84l-32 45.6a171.68 171.68 0 0 1 18.56 24l52.32-19.04a17.12 17.12 0 0 1 21.92 10.24l13.92 36.64a17.12 17.12 0 0 1-10.24 21.92l-52.32 19.52a172.16 172.16 0 0 1 1.6 22.56v7.68l53.76 14.4a17.12 17.12 0 0 1 12.16 20.96l-10.24 38.24a17.12 17.12 0 0 1-20.96 12.16l-53.6-14.4a171.2 171.2 0 0 1-16 25.44l35.68 42.56a17.12 17.12 0 0 1-2.08 24.16l-31.04 25.44a17.12 17.12 0 0 1-24.16-2.08l-35.68-42.72a170.08 170.08 0 0 1-42.4 16V814.88A17.12 17.12 0 0 1 323.68 832h-39.68a17.12 17.12 0 0 1-17.12-17.12v-55.52a170.24 170.24 0 0 1-28.8-8.96l-32 45.44A17.12 17.12 0 0 1 182.4 800l-32-22.72a17.12 17.12 0 0 1-4.16-23.84l32-45.6a171.84 171.84 0 0 1-18.24-24l-52.96 19.04a17.12 17.12 0 0 1-21.92-10.24L71.52 656a17.12 17.12 0 0 1 10.24-21.92l52.32-19.04a172.16 172.16 0 0 1-1.6-23.04v-7.68l-53.76-14.4a17.12 17.12 0 0 1-12.16-20.96l10.24-38.24a17.12 17.12 0 0 1 20.96-12.16l53.6 14.4a171.36 171.36 0 0 1 16-25.44l-35.04-42.56a17.12 17.12 0 0 1 2.08-24.16l30.24-25.44a17.12 17.12 0 0 1 24.16 2.08l35.2 42.72a170.08 170.08 0 0 1 42.4-16v-55.52a17.12 17.12 0 0 1 17.6-16.64h39.52a17.12 17.12 0 0 1 17.12 17.12v55.52a170.24 170.24 0 0 1 28.8 8.96l32-45.44a17.12 17.12 0 0 1 23.84-4.16zM304 489.12A102.88 102.88 0 1 0 406.72 592 103.04 103.04 0 0 0 304 489.12zM736 508a12 12 0 0 1 12-12h27.68a12 12 0 0 1 12 12v38.88a119.2 119.2 0 0 1 20.16 6.4l22.24-32a12 12 0 0 1 16-2.88l22.72 16a12 12 0 0 1 2.88 16l-22.4 32a120.16 120.16 0 0 1 12.8 16l36.64-13.28a12 12 0 0 1 16 7.2l9.44 26.08a12 12 0 0 1-7.2 16L880 648.3199999999999a120.32 120.32 0 0 1 1.12 16v5.28l37.6 10.08a12 12 0 0 1 8.48 14.72l-7.2 26.72a12 12 0 0 1-14.72 8.48l-37.12-9.6a119.84 119.84 0 0 1-11.36 17.76l24.96 29.76A12 12 0 0 1 880 784l-20.96 17.6a12 12 0 0 1-16.8-1.6l-24.96-29.6a119.04 119.04 0 0 1-29.6 10.72V820a12 12 0 0 1-12.16 12h-27.68a12 12 0 0 1-12-12v-38.88a119.2 119.2 0 0 1-20.16-6.24l-22.24 32a12 12 0 0 1-16 2.88l-22.72-16a12 12 0 0 1-2.88-16l22.4-32a120.32 120.32 0 0 1-12.8-16L624 741.6a12 12 0 0 1-16-7.2l-9.44-26.08a12 12 0 0 1 7.2-16l36.64-13.28a120.48 120.48 0 0 1-1.12-16v-5.28l-37.6-10.08a12 12 0 0 1-8.48-14.72l7.2-26.72a12 12 0 0 1 14.72-8.48L656 608a119.84 119.84 0 0 1 11.36-17.76l-25.76-29.12a12 12 0 0 1 1.6-17.12l21.28-17.76a12 12 0 0 1 16.8 1.76l24.96 29.76a119.04 119.04 0 0 1 29.6-10.72z m-46.24 156a72 72 0 1 0 72-72 72.16 72.16 0 0 0-72 72zM174.4 133.44000000000005l88.96 127.04a48 48 0 1 1-78.72 55.04l-112-160a48 48 0 0 1 5.44-61.44l144-144a48 48 0 0 1 67.84 67.84zM945.92 177.91999999999996l-144 144a48 48 0 0 1-67.84-67.84l112-112L732.32 16a48 48 0 0 1 71.36-64l144 160a48 48 0 0 1-1.76 65.92zM595.84 331.67999999999995a48 48 0 0 1-64-23.84l-138.4-304a48 48 0 1 1 87.36-39.84l138.4 304a48 48 0 0 1-23.36 63.68z"  horiz-adv-x="1024" />

    
    <glyph glyph-name="product-batch-performance" unicode="&#59115;" d="M496 311.36a32 32 0 0 1-2.4 8.32 32 32 0 0 1-4.64 6.88l-1.6 1.76-1.76 1.92a32 32 0 0 1-4.48 3.2l-136.16 77.44a32 32 0 0 1-22.24 5.12l-240-35.36h-1.44a32 32 0 0 1-5.92-1.76l-2.88-1.28h-1.12a32 32 0 0 1-4.48-3.52l-2.88-2.56a32 32 0 0 1-5.44-7.2s0-1.28-0.8-2.08a32 32 0 0 1-2.4-6.56V352.32000000000005a32 32 0 0 1 0-3.52v-271.04a32 32 0 0 1 16-27.84l136.16-77.44H208a32 32 0 0 1 6.24-2.56h1.76a32 32 0 0 1 8-1.92h4.64l240 35.36a32 32 0 0 1 27.36 32V306.4v2.72 2.24z m-174.4 39.36l46.4-26.24L230.08 304l-46.24 26.4zM118.88 293.76l63.2-36 9.6-5.44v-197.44L118.56 96zM432 62.879999999999995l-176-25.76V243.36l176 25.92zM294.72 465.92l136.16-77.44H432a32 32 0 0 1 6.24-2.56h1.76a32 32 0 0 1 8-1.92h4.64l240 35.36a32 32 0 0 1 27.36 32V722.4v2.72 2.4a32 32 0 0 1-2.4 8.32 32 32 0 0 1-4.64 6.88l-1.6 1.76-1.76 1.92a32 32 0 0 1-5.6 3.2l-136.96 78.24A32 32 0 0 1 546.72 832l-240-35.36h-1.44a32 32 0 0 1-5.92-1.76l-2.88-1.28h-1.12a32 32 0 0 1-4.48-3.52l-2.88-2.56a32 32 0 0 1-5.44-7.2s0-1.28-0.8-2.08a32 32 0 0 1-2.4-6.56V768.3199999999999a32 32 0 0 1 0-3.52v-271.04a32 32 0 0 1 15.36-27.84z m48 243.84l63.2-36 9.6-5.44v-197.44L342.56 512zM656 478.88l-176-25.76V659.36l176 25.92z m-110.56 288L592 740.48 454.08 720l-46.4 26.56zM960 308.96000000000004v2.4a32 32 0 0 1-2.4 8.32 32 32 0 0 1-4.64 6.88l-1.6 1.76-1.76 1.92a32 32 0 0 1-4.48 3.2l-136.16 77.44a32 32 0 0 1-22.24 5.12l-240-35.36h-1.44a32 32 0 0 1-5.92-1.76l-2.88-1.28h-1.12a32 32 0 0 1-4.48-3.52l-1.76-1.44a32 32 0 0 1-5.44-7.2s0-1.28-0.8-2.08a32 32 0 0 1-2.4-6.56V353.44000000000005a32 32 0 0 1 0-3.52v-271.04a32 32 0 0 1 16-27.84l136.16-77.44H672a32 32 0 0 1 6.24-2.56h1.76a32 32 0 0 1 8-3.04h4.64l240 35.36a32 32 0 0 1 27.36 32V306.4v2.56z m-174.88 41.76L832 324.48 694.08 304l-46.24 26.4z m-202.24-56.96l63.2-36 9.6-5.44v-197.44L582.56 96zM896 62.879999999999995l-176-25.76V243.36l176 25.92z"  horiz-adv-x="1024" />

    
    <glyph glyph-name="aduit" unicode="&#59116;" d="M888 0h-752a32 32 0 0 1 0-64h752a32 32 0 0 1 0 64zM864 128a64 64 0 0 1-64 64h-110.4a190.24 190.24 0 0 0 2.4 164.48 273.6 273.6 0 0 1 55.68 68 272 272 0 1 1-471.2 0 273.6 273.6 0 0 1 56.32-68.64A192 192 0 0 0 334.4 192H224a64 64 0 0 1-64-64v-96h704z m-64-32H224v32h147.52A254.72 254.72 0 0 1 416 272a257.92 257.92 0 0 1-2.56 34.72A256 256 0 0 1 384 396.8a209.12 209.12 0 0 0-57.12 69.92 208 208 0 1 0 371.04 0 209.12 209.12 0 0 0-56.32-68.8 256 256 0 0 1-30.56-90.4A252.8 252.8 0 0 1 608 272a255.04 255.04 0 0 1 44.48-144H800z"  horiz-adv-x="1024" />

    
    <glyph glyph-name="confirm-report" unicode="&#59117;" d="M704 576a32 32 0 0 1-32 32H224a32 32 0 0 1 0-64h448a32 32 0 0 1 32 32zM592 432a32 32 0 0 1-32 32H224a32 32 0 0 1 0-64h336a32 32 0 0 1 32 32zM453.12 288a32 32 0 0 1-32 32H224a32 32 0 0 1 0-64h197.12a32 32 0 0 1 32 32zM224 176a32 32 0 0 1 0-64h176a32 32 0 0 1 0 64zM496 0H160a32 32 0 0 0-32 32V704a32 32 0 0 0 32 32h144v-32h288v32h144a32 32 0 0 0 32-32v-240a32 32 0 0 1 64 0V704a96 96 0 0 1-96 96h-144V832H304v-32h-144a96 96 0 0 1-96-96v-672a96 96 0 0 1 96-96h336a32 32 0 0 1 0 64zM728 400A232 232 0 1 1 960 168 232.32 232.32 0 0 1 728 400z m0-416A184 184 0 1 0 912 168 184.16 184.16 0 0 0 728-16zM859.2 238.39999999999998a24 24 0 0 1-33.6 4.8L692.96 144l-60 60a24 24 0 0 1-33.92-33.92l74.72-74.72a24 24 0 0 1 32-2.24l149.28 112a24 24 0 0 1 4.16 33.28z"  horiz-adv-x="1024" />

    
    <glyph glyph-name="plus-final" unicode="&#59118;" d="M896 448H576V768a64 64 0 0 1-128 0v-320H128a64 64 0 0 1 0-128h320v-320a64 64 0 0 1 128 0V320h320a64 64 0 0 1 0 128z"  horiz-adv-x="1024" />

    
    <glyph glyph-name="submit-report" unicode="&#59119;" d="M72.64 115.03999999999996l37.76 37.76a23.68 23.68 0 0 0 37.76 0l130.72-130.72a23.68 23.68 0 0 0 0-37.76l-37.76-37.76a23.68 23.68 0 0 0-37.76 0l-130.72 130.72a23.68 23.68 0 0 0 0 37.76z m0 0M880 283.52l1.6 1.6c-32-19.84-128-106.88-160-106.88a1285.6 1285.6 0 0 0-192 9.12c-74.24 6.88-45.44 37.92-33.6 41.76s153.92 11.2 200.96 17.12 36.32 48-11.68 50.24-267.2 17.12-339.36 11.68-176-102.08-180.64-106.88-3.2-9.6 3.68-16l156-145.44c6.88-6.4 16 0 20.8 0A267.04 267.04 0 0 0 416 69.12c32 6.88 208-13.28 267.2-3.68s217.44 144 251.68 174.24c16 14.4 28.8 35.2 25.12 40.64-17.28 26.08-59.52 16-80 3.2zM512 336a32 32 0 0 1 32 32V562.72l57.44-57.44a32 32 0 0 1 45.28 45.28l-112 112a32 32 0 0 1-45.28 0l-112-112a32 32 0 0 1 45.28-45.28L480 562.72V368a32 32 0 0 1 32-32zM896 784H656V832H368v-48H128a64 64 0 0 1-64-64v-464a32 32 0 0 1 64 0V720h240v-16h288v16h240v-336a32 32 0 0 1 64 0V720a64 64 0 0 1-64 64z"  horiz-adv-x="1024" />

    
    <glyph glyph-name="file-resource-report" unicode="&#59120;" d="M944 121.27999999999997l-48 17.76A160 160 0 0 1 896 160v7.04l50.24 13.44a16 16 0 0 1 11.36 19.52l-9.6 35.68a16 16 0 0 1-20 11.52l-50.08-13.44a160 160 0 0 1-15.2 23.68L896 297.12a16 16 0 0 1-1.92 22.88l-28.32 23.68a16 16 0 0 1-22.56-1.92l-33.28-39.68a158.72 158.72 0 0 1-39.52 14.4V368a16 16 0 0 1-16 16h-36.8a16 16 0 0 1-16-16v-51.84a158.88 158.88 0 0 1-26.88-8.48l-29.76 42.4a16 16 0 0 1-22.24 4L592 332.96000000000004a16 16 0 0 1-4-22.24l29.76-42.56a160 160 0 0 1-17.12-22.24l-48 17.76a16 16 0 0 1-20.48-9.6l-12.64-34.72a16 16 0 0 1 9.6-20.48l48-17.76A160 160 0 0 1 576 160v-7.04l-50.24-13.44a16 16 0 0 1-11.36-19.52l9.6-35.68a16 16 0 0 1 19.52-11.36l50.08 13.44a160 160 0 0 1 15.2-23.68L576 22.879999999999995a16 16 0 0 1 1.92-22.88l28.32-23.68a16 16 0 0 1 22.56 1.92l33.28 39.68a158.72 158.72 0 0 1 39.52-14.4V-48a16 16 0 0 1 16-16h36.96a16 16 0 0 1 16 16v51.84a158.88 158.88 0 0 1 26.88 8.48l29.76-42.4a16 16 0 0 1 22.24-4L880-12.960000000000036a16 16 0 0 1 4 22.24l-29.76 42.56a160 160 0 0 1 17.12 22.24l48-17.76a16 16 0 0 1 20.48 9.6l12.64 34.72a16 16 0 0 1-8.48 20.64zM736 64a96 96 0 1 0 96 96 96 96 0 0 0-96-96zM498.24 0H128V464h752v-41.28a32 32 0 0 1 64 0V640a32 32 0 0 1-32 32H529.12l-86.56 129.76A32 32 0 0 1 416 816H96a32 32 0 0 1-32-32v-816a32 32 0 0 1 32-32h402.24a32 32 0 0 1 0 64zM128 752h270.88l86.56-129.76A32 32 0 0 1 512 608h368v-80H128z"  horiz-adv-x="1024" />

    
    <glyph glyph-name="extend-properity" unicode="&#59121;" d="M173.28 768H272a32 32 0 0 1 0 64H96a32 32 0 0 1-6.24 0h-2.72l-3.2-0.96-3.84-3.04-2.56-1.44a32 32 0 0 1-8.8-8.8S68.48 816 68 816a32 32 0 0 1-1.6-3.04 32 32 0 0 1-0.96-3.2c0-0.96 0-1.76-0.8-2.72A32 32 0 0 1 64 800v-192a32 32 0 0 1 64 0v114.72l217.44-217.28a32 32 0 0 1 45.28 45.28zM678.56 505.44L896 722.72V624a32 32 0 0 1 64 0V800a32 32 0 0 1 0 6.24v2.72a32 32 0 0 1-0.96 3.2 32 32 0 0 1-1.6 3.04c0 0.8-0.8 1.76-1.44 2.56a32 32 0 0 1-8.8 8.8l-3.2 1.44-3.04 1.6-3.2 0.96-3.52 1.44A32 32 0 0 1 928 832H736a32 32 0 0 1 0-64h114.72L633.44 550.56a32 32 0 0 1 45.28-45.28zM944 192a32 32 0 0 1-32-32v-114.72L694.56 262.55999999999995a32 32 0 0 1-45.28-45.28L866.72 0H768a32 32 0 0 1 0-64h176a32 32 0 0 1 6.24 0h2.72l3.2 0.96 3.04 1.6 2.56 1.44a32 32 0 0 1 8.8 8.8s0.8 1.6 1.28 2.4a18.72 18.72 0 0 1 2.56 6.24c0 0.96 0 1.76 0.8 2.72A32 32 0 0 1 976-32V160a32 32 0 0 1-32 32zM345.44 262.55999999999995L128 45.27999999999997V144a32 32 0 0 1-64 0v-176a32 32 0 0 1 0-6.24c0-0.96 0-1.76 0.8-2.72a32 32 0 0 1 0.96-3.2 32 32 0 0 1 1.6-3.04c0-0.8 0.8-1.76 1.28-2.4a32 32 0 0 1 8.8-8.8l2.4-1.28 3.04-1.6 3.2-0.96 2.72-0.8A32 32 0 0 1 96-64h192a32 32 0 0 1 0 64h-114.72l217.28 217.44a32 32 0 0 1-45.28 45.28z"  horiz-adv-x="1024" />

    
    <glyph glyph-name="tag-issue" unicode="&#59122;" d="M544 64a48 48 0 0 1 38.24 19.84C608 117.27999999999997 821.28 416 821.28 554.0799999999999a282.72 282.72 0 0 1-565.28 0c0-136.32 208-416 249.76-471.2A48 48 0 0 1 544 64z m-5.28 672a184.48 184.48 0 0 0 186.56-181.92c0-69.76-100-240-182.24-360C457.12 314.55999999999995 352 484.64 352 554.0799999999999A184.48 184.48 0 0 0 538.72 736zM672 554.0799999999999a132.64 132.64 0 1 1-132.64-132.64A132.64 132.64 0 0 1 672 554.0799999999999z m-132.64-68.64A68.64 68.64 0 1 0 608 554.0799999999999a68.64 68.64 0 0 0-69.28-68.48zM912 32H144V784a48 48 0 0 1-96 0v-800a48 48 0 0 1 48-48h816a48 48 0 0 1 0 96z"  horiz-adv-x="1024" />

    
    <glyph glyph-name="fill-report" unicode="&#59123;" d="M224 544h432a32 32 0 0 1 0 64H224a32 32 0 0 1 0-64zM224 400h288a32 32 0 0 1 0 64H224a32 32 0 0 1 0-64zM421.12 288a32 32 0 0 1-32 32H224a32 32 0 0 1 0-64h165.12a32 32 0 0 1 32 32zM224 176a32 32 0 0 1 0-64h112a32 32 0 0 1 0 64zM256 0h-96a32 32 0 0 0-32 32V704a32 32 0 0 0 32 32h144v-32h288v32h144a32 32 0 0 0 32-32v-48a32 32 0 0 1 64 0v48a96 96 0 0 1-96 96h-144V832H304v-32h-144a96 96 0 0 1-96-96v-672a96 96 0 0 1 96-96h96a32 32 0 0 1 0 64zM928 0H368a32 32 0 0 1 0-64h560a32 32 0 0 1 0 64zM873.28 350.24l-147.04 147.04-248.96-248.96L624 101.27999999999997z m-147.04 79.2l80-79.2L624 169.27999999999997l-80 79.2zM737.6 508.64l147.04-147.04 62.24 62.24a56 56 0 0 1 0 79.2l-67.84 67.84a57.28 57.28 0 0 1-79.2 0z m96 28.32a8 8 0 0 0 11.36 0l67.84-67.84a8 8 0 0 0 0-11.36l-28.32-28.32-80 79.2zM432 32a23.84 23.84 0 0 1 5.44 0l147.04 33.92a24 24 0 0 1 11.52 40.32l-113.12 113.12a24 24 0 0 1-40.32-11.52l-33.92-147.04A24 24 0 0 1 432 32z m48 123.52l51.84-51.84-67.52-16z"  horiz-adv-x="1024" />

    
    <glyph glyph-name="extend-properity-management" unicode="&#59124;" d="M629.76 276a160 160 0 0 1 17.12 22.24l48-17.76a16 16 0 0 1 20.48 9.6l12.64 34.72a16 16 0 0 1-9.6 20.48l-48 17.76A160 160 0 0 1 672 384v7.04l50.24 13.44a16 16 0 0 1 11.36 19.52l-9.6 35.68a16 16 0 0 1-20 11.52l-50.08-13.44a160 160 0 0 1-15.2 23.68L672 521.12a16 16 0 0 1-1.92 22.88l-28.32 23.68a16 16 0 0 1-22.56-1.92l-33.28-39.68a158.72 158.72 0 0 1-39.52 14.4V592a16 16 0 0 1-16 16h-36.8a16 16 0 0 1-16-16v-51.84a158.88 158.88 0 0 1-26.88-8.48l-29.76 42.4a16 16 0 0 1-22.24 4L368 556.96a16 16 0 0 1-4-22.24l29.76-42.56a160 160 0 0 1-17.12-22.24l-48 17.76a16 16 0 0 1-20.48-9.6l-12.64-34.72a16 16 0 0 1 9.6-20.48l48-17.76A160 160 0 0 1 352 384v-7.04l-50.24-13.44a16 16 0 0 1-11.36-19.52l9.6-35.68a16 16 0 0 1 19.52-11.36l50.08 13.44a160 160 0 0 1 15.2-23.68L352 246.88a16 16 0 0 1 1.92-22.88l28.32-23.68a16 16 0 0 1 22.56 1.92l33.28 39.68a158.72 158.72 0 0 1 39.52-14.4V176a16 16 0 0 1 16-16h36.96a16 16 0 0 1 16 16v51.84a158.88 158.88 0 0 1 26.88 8.48l29.76-42.4a16 16 0 0 1 22.24-4L656 211.03999999999996a16 16 0 0 1 4 22.24zM512 288a96 96 0 1 0 96 96 96 96 0 0 0-96-96zM96 576a32 32 0 0 1 32 32v114.72l153.44-153.44a32 32 0 0 1 45.28 45.28L173.28 768H272a32 32 0 0 1 0 64H96a32 32 0 0 1-6.24 0h-2.72l-3.2-0.96-3.84-3.04-2.56-1.44a32 32 0 0 1-8.8-8.8S68.48 816 68 816a32 32 0 0 1-1.6-3.04 32 32 0 0 1-0.96-3.2c0-0.96 0-1.76-0.8-2.72A32 32 0 0 1 64 800v-192a32 32 0 0 1 32-32zM960 806.24v2.72a32 32 0 0 1-0.96 3.2 32 32 0 0 1-1.6 3.04c0 0.8-0.8 1.76-1.44 2.56a32 32 0 0 1-8.8 8.8l-3.2 1.44-3.04 1.6-3.2 0.96-3.52 1.44A32 32 0 0 1 928 832H736a32 32 0 0 1 0-64h114.72l-153.44-153.44a32 32 0 0 1 45.28-45.28L896 722.72V624a32 32 0 0 1 64 0V800a32 32 0 0 1 0 6.24zM928 192a32 32 0 0 1-32-32v-114.72l-153.44 153.44a32 32 0 0 1-45.28-45.28L850.72 0H752a32 32 0 0 1 0-64h176a32 32 0 0 1 6.24 0h2.72l3.2 0.96 3.04 1.6 2.56 1.44a32 32 0 0 1 8.8 8.8s0.8 1.6 1.28 2.4a18.72 18.72 0 0 1 2.56 6.24c0 0.96 0 1.76 0.8 2.72A32 32 0 0 1 960-32V160a32 32 0 0 1-32 32zM281.44 198.55999999999995L128 45.27999999999997V144a32 32 0 0 1-64 0v-176a32 32 0 0 1 0-6.24v-2.72a18.56 18.56 0 0 1 2.56-6.24c0-0.8 0.8-1.76 1.44-2.56a32 32 0 0 1 8.8-8.8l2.4-1.28 3.04-1.6 3.2-0.96 2.72-0.8A32 32 0 0 1 96-64h192a32 32 0 0 1 0 64h-114.72l153.44 153.44a32 32 0 0 1-45.28 45.28z"  horiz-adv-x="1024" />

    
    <glyph glyph-name="product-mat-performance" unicode="&#59125;" d="M944 612a48 48 0 0 1 0 7.36v2.72a48 48 0 0 1-2.56 7.84v0.8a48 48 0 0 1-4.64 7.84l-1.6 2.08a48 48 0 0 1-4.96 5.28l-2.24 0.96a48 48 0 0 1-7.04 4.96l-280.64 160A48 48 0 0 1 608 817.76L115.04 745.28l-4.48-0.96h-1.6a48 48 0 0 1-10.08-4.16h-1.92a48 48 0 0 1-8.8-6.72l-0.96-0.96a48 48 0 0 1-6.4-8.32v-1.12a48 48 0 0 1-4.16-9.92V708.3199999999999a48 48 0 0 1 0-8.32l-3.52-558.56a48 48 0 0 1 24.32-41.76l280.64-160h1.12a48 48 0 0 1 8.96-3.68h2.88a44.32 44.32 0 0 1 17.76-0.8l493.28 72.48a48 48 0 0 1 40.96 48L944 610.56v1.44z m-192.96 25.92l-338.88-49.76-145.12 82.56L605.92 720z m-581.12-22.56l184.8-105.12V64.15999999999997l-185.6 105.12zM847.04 96l-397.12-58.72 0.8 458.72 16 2.24L848 555.04z"  horiz-adv-x="1024" />

    
    <glyph glyph-name="unsealed" unicode="&#59126;" d="M786.88 689.6l-41.44-15.04 120.48-67.84 45.28 131.84-52.8-22.56C816.96 784 704 885.44 508 746.08c0 0 199.68 71.52 278.88-56.48zM936.8 466.08L320 466.72a61.12 61.12 0 0 1-48-32l-144-280V672h240v-96h368v-48a32 32 0 0 1 32-32 32 32 0 0 1 32 32v112H432v32a64 64 0 0 1-64 64H128a64 64 0 0 1-64-64v-624a64 64 0 0 1 1.92-14.72l-9.76-19.04c-9.12-17.92-2.4-32 15.2-32h617.44a61.12 61.12 0 0 1 48 32l215.04 419.52c9.12 17.92 2.4 32.32-15.04 32.32z"  horiz-adv-x="1024" />

    
    <glyph glyph-name="resource-management" unicode="&#59127;" d="M945.76 88.15999999999997l-40 14.56a132 132 0 0 1 1.28 17.28v5.76l41.28 11.04a13.12 13.12 0 0 1 9.28 16l-7.84 29.28a13.12 13.12 0 0 1-16 9.28l-41.12-11.04A131.36 131.36 0 0 1 880 200l27.36 32a13.12 13.12 0 0 1-1.6 18.56l-23.2 19.52a13.12 13.12 0 0 1-18.56-1.6l-27.36-32a130.4 130.4 0 0 1-32 11.84v42.56a13.12 13.12 0 0 1-13.12 13.12h-30.4a13.12 13.12 0 0 1-13.12-13.12v-42.56a130.56 130.56 0 0 1-22.08-6.88l-25.12 34.72a13.12 13.12 0 0 1-18.24 3.2l-24.96-17.28a13.12 13.12 0 0 1-3.2-18.24L678.88 208a131.68 131.68 0 0 1-14.08-18.24L624 204.96000000000004a13.12 13.12 0 0 1-16.8-7.84l-10.4-28.48a13.12 13.12 0 0 1 7.84-16.8l40-14.56a131.84 131.84 0 0 1-1.28-17.28v-5.76l-41.28-11.04a13.12 13.12 0 0 1-9.28-16l7.84-29.28a13.12 13.12 0 0 1 16-9.28l41.12 11.04A131.2 131.2 0 0 1 672 40l-27.36-32a13.12 13.12 0 0 1 1.6-18.56l23.2-19.52a13.12 13.12 0 0 1 18.56 1.6l27.36 32a130.4 130.4 0 0 1 32-11.84v-42.56a13.12 13.12 0 0 1 13.12-13.12h30.4a13.12 13.12 0 0 1 13.12 13.12v42.56a130.56 130.56 0 0 1 22.08 6.88l24.32-34.88a13.12 13.12 0 0 1 18.24-3.2l24.8 17.44a13.12 13.12 0 0 1 3.2 18.24L872.32 32a131.68 131.68 0 0 1 14.08 18.24l40-14.56a13.12 13.12 0 0 1 17.6 7.2l10.4 28.48a13.12 13.12 0 0 1-8.64 16.8z m-170.24-47.04a78.88 78.88 0 1 0 78.88 78.88 78.88 78.88 0 0 0-78.88-78.88zM696 392a112 112 0 0 1-224 5.76l-163.04-11.68a128 128 0 0 1-67.36 87.84l80.96 115.52a128 128 0 1 1-42.72 22.72L192 487.52h-8.8a128 128 0 1 1 125.92-149.92L480 350.24a112 112 0 0 1 216 41.76z m-336 384a64 64 0 1 0-64-64 64 64 0 0 0 64 64z m-176-480a64 64 0 1 0 64 64 64 64 0 0 0-64-64z m400 48a48 48 0 1 0 48 48 48 48 0 0 0-48-48z"  horiz-adv-x="1024" />

    
    <glyph glyph-name="summary-report-manageent" unicode="&#59128;" d="M944 121.27999999999997l-48 17.76A160 160 0 0 1 896 160v7.04l50.24 13.44a16 16 0 0 1 11.36 19.52l-9.6 35.68a16 16 0 0 1-20 11.52l-50.08-13.44a160 160 0 0 1-15.2 23.68L896 297.12a16 16 0 0 1-1.92 22.88l-28.32 23.68a16 16 0 0 1-22.56-1.92l-33.28-39.68a158.72 158.72 0 0 1-39.52 14.4V368a16 16 0 0 1-16 16h-36.8a16 16 0 0 1-16-16v-51.84a158.88 158.88 0 0 1-26.88-8.48l-29.76 42.4a16 16 0 0 1-22.24 4L592 332.96000000000004a16 16 0 0 1-4-22.24l29.76-42.56a160 160 0 0 1-17.12-22.24l-48 17.76a16 16 0 0 1-20.48-9.6l-12.64-34.72a16 16 0 0 1 9.6-20.48l48-17.76A160 160 0 0 1 576 160v-7.04l-50.24-13.44a16 16 0 0 1-11.36-19.52l9.6-35.68a16 16 0 0 1 19.52-11.36l50.08 13.44a160 160 0 0 1 15.2-23.68L576 22.879999999999995a16 16 0 0 1 1.92-22.88l28.32-23.68a16 16 0 0 1 22.56 1.92l33.28 39.68a158.72 158.72 0 0 1 39.52-14.4V-48a16 16 0 0 1 16-16h36.96a16 16 0 0 1 16 16v51.84a158.88 158.88 0 0 1 26.88 8.48l29.76-42.4a16 16 0 0 1 22.24-4L880-12.960000000000036a16 16 0 0 1 4 22.24l-29.76 42.56a160 160 0 0 1 17.12 22.24l48-17.76a16 16 0 0 1 20.48 9.6l12.64 34.72a16 16 0 0 1-8.48 20.64zM736 64a96 96 0 1 0 96 96 96 96 0 0 0-96-96zM704 592a32 32 0 0 1-32 32H224a32 32 0 0 1 0-64h448a32 32 0 0 1 32 32zM640 442.72a32 32 0 0 1-32 32H224a32 32 0 1 1 0-64h384a32 32 0 0 1 32 32zM485.12 293.28a32 32 0 0 1-32 32H224a32 32 0 0 1 0-64h229.12a32 32 0 0 1 32 32zM224 176a32 32 0 0 1 0-64h208a32 32 0 0 1 0 64zM496 0H160a32 32 0 0 0-32 32V704a32 32 0 0 0 32 32h144v-32h288v32h144a32 32 0 0 0 32-32v-240a32 32 0 0 1 64 0V704a96 96 0 0 1-96 96h-144V832H304v-32h-144a96 96 0 0 1-96-96v-672a96 96 0 0 1 96-96h336a32 32 0 0 1 0 64z"  horiz-adv-x="1024" />

    
    <glyph glyph-name="scan" unicode="&#59129;" d="M160 504a48 48 0 0 1 48 48V672a16 16 0 0 0 16 16h192a48 48 0 1 1 0 96H224a112 112 0 0 1-112-112v-120a48 48 0 0 1 48-48zM608 688h192a16 16 0 0 0 16-16v-120a48 48 0 0 1 96 0V672a112 112 0 0 1-112 112H608a48 48 0 0 1 0-96zM416 72H224a16 16 0 0 0-16 16V208a48 48 0 0 1-96 0v-120a112 112 0 0 1 112-112h192a48 48 0 1 1 0 96zM864 256a48 48 0 0 1-48-48v-120a16 16 0 0 0-16-16H608a48 48 0 0 1 0-96h192a112 112 0 0 1 112 112V208a48 48 0 0 1-48 48zM912 432H112a48 48 0 0 1 0-96h800a48 48 0 0 1 0 96z"  horiz-adv-x="1024" />

    
    <glyph glyph-name="amount-of-mat" unicode="&#59130;" d="M950.56 246.55999999999995l-112 112A32 32 0 0 1 784 336v-368a32 32 0 0 1 64 0V258.72l57.44-57.44a32 32 0 0 1 45.28 45.28zM704 368a32 32 0 0 1-32-32v-290.72l-57.44 57.44a32 32 0 0 1-45.28-45.28l112-112A32 32 0 0 1 736-32V336a32 32 0 0 1-32 32zM600 784a24 24 0 0 1 0 48h-96A23.68 23.68 0 0 1 480 804 32 32 0 0 1 480 800v-736a64 64 0 0 0-64-64h-144a64 64 0 0 0-64 64V272h120a24 24 0 0 1 0 48H208v112h104a24 24 0 0 1 0 48H208v112h184a24 24 0 0 1 0 48H208V800a32 32 0 0 1 0 4A23.68 23.68 0 0 1 184 832h-96a24 24 0 0 1 0-48H144v-720a128 128 0 0 1 128-128h144a128 128 0 0 1 128 128V784z"  horiz-adv-x="1024" />

    
    <glyph glyph-name="member-mat-code" unicode="&#59131;" d="M174.4 133.44000000000005l88.96 127.04a48 48 0 1 1-78.72 55.04l-112-160a48 48 0 0 1 5.44-61.44l144-144a48 48 0 0 1 67.84 67.84zM945.92 177.91999999999996l-144 144a48 48 0 0 1-67.84-67.84l112-112L732.32 16a48 48 0 1 1 71.36-64l144 160a48 48 0 0 1-1.76 65.92zM193.6 395.04l350.72-11.36-11.36 350.72-101.76-101.76L227.52 836.16l-135.68-135.68 203.52-203.68-101.76-101.76zM595.84 331.67999999999995a48 48 0 0 1-64-23.84l-138.4-304a48 48 0 1 1 87.36-39.84l138.4 304a48 48 0 0 1-23.36 63.68z"  horiz-adv-x="1024" />

    
    <glyph glyph-name="intervalometer" unicode="&#59093;" d="M544 670.56V736h64a32 32 0 0 1 0 64H416a32 32 0 0 1 0-64h64v-65.44a368 368 0 1 1 64 0z m0-668.8V64a32 32 0 0 1-64 0v-62.24A304 304 0 0 0 209.76 272H272a32 32 0 0 1 0 64h-62.24A304 304 0 0 0 480 606.24V544a32 32 0 0 1 64 0v62.24A304 304 0 0 0 814.24 336H752a32 32 0 0 1 0-64h62.24A304 304 0 0 0 544 1.759999999999991zM688 235.36l-150.56 90.4-75.52 197.76a32 32 0 0 1-59.68-23.04l80-208a32 32 0 0 1 4.32-7.36l1.12-1.28a32 32 0 0 1 5.28-4.8l1.6-1.12h0.8l160-96A32 32 0 0 1 688 235.36z"  horiz-adv-x="1024" />

    
    <glyph glyph-name="workflow-management" unicode="&#59094;" d="M928 121.27999999999997l-48 17.76A160 160 0 0 1 880 160v7.04l50.24 13.44a16 16 0 0 1 11.36 19.52l-9.6 35.68a16 16 0 0 1-20 11.52l-50.08-13.44a160 160 0 0 1-15.2 23.68L880 297.12a16 16 0 0 1-1.92 22.88l-28.32 23.68a16 16 0 0 1-22.56-1.92l-33.28-39.68a158.72 158.72 0 0 1-39.52 14.4V368a16 16 0 0 1-16 16h-36.8a16 16 0 0 1-16-16v-51.84a158.88 158.88 0 0 1-26.88-8.48l-29.76 42.4a16 16 0 0 1-22.24 4L576 332.96000000000004a16 16 0 0 1-4-22.24l29.76-42.56a160 160 0 0 1-17.12-22.24l-48 17.76a16 16 0 0 1-20.48-9.6l-12.64-34.72a16 16 0 0 1 9.6-20.48l48-17.76A160 160 0 0 1 560 160v-7.04l-50.24-13.44a16 16 0 0 1-11.36-19.52l9.6-35.68a16 16 0 0 1 19.52-11.36l50.08 13.44a160 160 0 0 1 15.2-23.68L560 22.879999999999995a16 16 0 0 1 1.92-22.88l28.32-23.68a16 16 0 0 1 22.56 1.92l33.28 39.68a158.72 158.72 0 0 1 39.52-14.4V-48a16 16 0 0 1 16-16h36.96a16 16 0 0 1 16 16v51.84a158.88 158.88 0 0 1 26.88 8.48l29.76-42.4a16 16 0 0 1 22.24-4L864-12.960000000000036a16 16 0 0 1 4 22.24l-29.76 42.56a160 160 0 0 1 17.12 22.24l48-17.76a16 16 0 0 1 20.48 9.6l12.64 34.72a16 16 0 0 1-8.48 20.64zM720 64a96 96 0 1 0 96 96 96 96 0 0 0-96-96zM464 320H224v-64h-64a32 32 0 0 0-32 32v128a32 32 0 0 0 32 32h64v-64h384v64h64a96 96 0 0 1 96 96v128a96 96 0 0 1-96 96h-64V832H224v-192h384v64h64a32 32 0 0 0 32-32v-128a32 32 0 0 0-32-32h-64v64H224v-64h-64a96 96 0 0 1-96-96v-128a96 96 0 0 1 96-96h64v-64h224a32 32 0 0 1 0 64H288v64h176a32 32 0 0 1 0 64z m80 384H288V768h256zM288 512h256v-64H288z"  horiz-adv-x="1024" />

    
    <glyph glyph-name="calculator" unicode="&#59095;" d="M448 832H96a32 32 0 0 1-32-32v-352a32 32 0 0 1 32-32h352a32 32 0 0 1 32 32V800a32 32 0 0 1-32 32z m-32-352H128V768h288zM928 832H576a32 32 0 0 1-32-32v-352a32 32 0 0 1 32-32h352a32 32 0 0 1 32 32V800a32 32 0 0 1-32 32z m-32-352H608V768h288zM448 352H96a32 32 0 0 1-32-32v-352a32 32 0 0 1 32-32h352a32 32 0 0 1 32 32V320a32 32 0 0 1-32 32z m-32-352H128V288h288zM928 352H576a32 32 0 0 1-32-32v-352a32 32 0 0 1 32-32h352a32 32 0 0 1 32 32V320a32 32 0 0 1-32 32z m-32-352H608V288h288zM176 592h64v-64a32 32 0 0 1 64 0v64h64a32 32 0 0 1 0 64h-64v64a32 32 0 0 1-64 0v-64h-64a32 32 0 0 1 0-64zM656 592h192a32 32 0 0 1 0 64H656a32 32 0 0 1 0-64zM181.44 53.440000000000055a32 32 0 0 1 45.28 0L272 98.72000000000003l45.28-45.28a32 32 0 0 1 45.28 45.28L317.28 144l45.28 45.28a32 32 0 0 1-45.28 45.28L272 189.27999999999997l-45.28 45.28a32 32 0 0 1-45.28-45.28L226.72 144l-45.28-45.28a32 32 0 0 1 0-45.28zM656 112h192a32 32 0 0 1 0 64H656a32 32 0 0 1 0-64zM752 192a32 32 0 0 1 32 32v16a32 32 0 0 1-64 0v-16a32 32 0 0 1 32-32zM752 96a32 32 0 0 1-32-32v-16a32 32 0 0 1 64 0v16a32 32 0 0 1-32 32z"  horiz-adv-x="1024" />

    
    <glyph glyph-name="role-management" unicode="&#59096;" d="M480 64H131.36c11.36 214.56 135.84 384 287.2 384A222.88 222.88 0 0 0 560 393.6a32 32 0 0 1 40.64 49.44 312.48 312.48 0 0 1-80 48 192 192 0 1 1-227.36-11.04C160.8 411.36 66.56 236.48000000000002 66.56 32v-32H480a32 32 0 0 1 0 64zM400 768a128 128 0 1 0-128-128 128 128 0 0 0 128 128zM944 121.27999999999997l-48 17.76A160 160 0 0 1 896 160v7.04l50.24 13.44a16 16 0 0 1 11.36 19.52l-9.6 35.68a16 16 0 0 1-20 11.52l-50.08-13.44a160 160 0 0 1-15.2 23.68L896 297.12a16 16 0 0 1-1.92 22.88l-28.32 23.68a16 16 0 0 1-22.56-1.92l-33.28-39.68a158.72 158.72 0 0 1-39.52 14.4V368a16 16 0 0 1-16 16h-36.8a16 16 0 0 1-16-16v-51.84a158.88 158.88 0 0 1-26.88-8.48l-29.76 42.4a16 16 0 0 1-22.24 4L592 332.96000000000004a16 16 0 0 1-4-22.24l29.76-42.56a160 160 0 0 1-17.12-22.24l-48 17.76a16 16 0 0 1-20.48-9.6l-12.64-34.72a16 16 0 0 1 9.6-20.48l48-17.76A160 160 0 0 1 576 160v-7.04l-50.24-13.44a16 16 0 0 1-11.36-19.52l9.6-35.68a16 16 0 0 1 19.52-11.36l50.08 13.44a160 160 0 0 1 15.2-23.68L576 22.879999999999995a16 16 0 0 1 1.92-22.88l28.32-23.68a16 16 0 0 1 22.56 1.92l33.28 39.68a158.72 158.72 0 0 1 39.52-14.4V-48a16 16 0 0 1 16-16h36.96a16 16 0 0 1 16 16v51.84a158.88 158.88 0 0 1 26.88 8.48l29.76-42.4a16 16 0 0 1 22.24-4L880-12.960000000000036a16 16 0 0 1 4 22.24l-29.76 42.56a160 160 0 0 1 17.12 22.24l48-17.76a16 16 0 0 1 20.48 9.6l12.64 34.72a16 16 0 0 1-8.48 20.64zM736 64a96 96 0 1 0 96 96 96 96 0 0 0-96-96z"  horiz-adv-x="1024" />

    
    <glyph glyph-name="forms-management" unicode="&#59097;" d="M928 121.27999999999997l-48 17.76A160 160 0 0 1 880 160v7.04l50.24 13.44a16 16 0 0 1 11.36 19.52l-9.6 35.68a16 16 0 0 1-20 11.52l-50.08-13.44a160 160 0 0 1-15.2 23.68L880 297.12a16 16 0 0 1-1.92 22.88l-28.32 23.68a16 16 0 0 1-22.56-1.92l-33.28-39.68a158.72 158.72 0 0 1-39.52 14.4V368a16 16 0 0 1-16 16h-36.8a16 16 0 0 1-16-16v-51.84a158.88 158.88 0 0 1-26.88-8.48l-29.76 42.4a16 16 0 0 1-22.24 4L576 332.96000000000004a16 16 0 0 1-4-22.24l29.76-42.56a160 160 0 0 1-17.12-22.24l-48 17.76a16 16 0 0 1-20.48-9.6l-12.64-34.72a16 16 0 0 1 9.6-20.48l48-17.76A160 160 0 0 1 560 160v-7.04l-50.24-13.44a16 16 0 0 1-11.36-19.52l9.6-35.68a16 16 0 0 1 19.52-11.36l50.08 13.44a160 160 0 0 1 15.2-23.68L560 22.879999999999995a16 16 0 0 1 1.92-22.88l28.32-23.68a16 16 0 0 1 22.56 1.92l33.28 39.68a158.72 158.72 0 0 1 39.52-14.4V-48a16 16 0 0 1 16-16h36.96a16 16 0 0 1 16 16v51.84a158.88 158.88 0 0 1 26.88 8.48l29.76-42.4a16 16 0 0 1 22.24-4L864-12.960000000000036a16 16 0 0 1 4 22.24l-29.76 42.56a160 160 0 0 1 17.12 22.24l48-17.76a16 16 0 0 1 20.48 9.6l12.64 34.72a16 16 0 0 1-8.48 20.64zM720 64a96 96 0 1 0 96 96 96 96 0 0 0-96-96zM480 0H163.04A33.6 33.6 0 0 0 128 32V736a33.6 33.6 0 0 0 35.04 32h569.92A33.6 33.6 0 0 0 768 736v-288a32 32 0 0 1 64 0V736a97.6 97.6 0 0 1-99.04 96H163.04A97.6 97.6 0 0 1 64 736v-704a97.6 97.6 0 0 1 99.04-96H480a32 32 0 0 1 0 64zM704 608a32 32 0 0 1-32 32H224a32 32 0 0 1 0-64h448a32 32 0 0 1 32 32zM640 458.72a32 32 0 0 1-32 32H224a32 32 0 1 1 0-64h384a32 32 0 0 1 32 32zM485.12 309.28a32 32 0 0 1-32 32H224a32 32 0 0 1 0-64h229.12a32 32 0 0 1 32 32zM224 192a32 32 0 0 1 0-64h192a32 32 0 0 1 0 64z"  horiz-adv-x="1024" />

    
    <glyph glyph-name="message-management" unicode="&#59098;" d="M941.12 200.15999999999997l-9.6 35.68a16 16 0 0 1-19.52 11.36l-50.08-13.44a160 160 0 0 1-15.2 23.68L880 297.12a16 16 0 0 1-1.92 22.88l-28.32 23.68a16 16 0 0 1-22.56-1.92l-33.28-39.68a158.72 158.72 0 0 1-39.52 14.4V368a16 16 0 0 1-16 16h-36.8a16 16 0 0 1-16-16v-51.84a158.88 158.88 0 0 1-26.88-8.48l-29.76 42.4a16 16 0 0 1-22.24 4L576 332.96000000000004a16 16 0 0 1-4-22.24l29.76-42.56a160 160 0 0 1-17.12-22.24l-48 17.76a16 16 0 0 1-20.48-9.6l-12.64-34.72a16 16 0 0 1 9.6-20.48l48-17.76A160 160 0 0 1 560 160v-7.04l-50.24-13.44a16 16 0 0 1-11.36-19.52l9.6-35.68a16 16 0 0 1 19.52-11.36l50.08 13.44a160 160 0 0 1 15.2-23.68L560 22.879999999999995a16 16 0 0 1 1.92-22.88l28.32-23.68a16 16 0 0 1 22.56 1.92l33.28 39.68a158.72 158.72 0 0 1 39.52-14.4V-48a16 16 0 0 1 16-16h36.96a16 16 0 0 1 16 16v51.84a158.88 158.88 0 0 1 26.88 8.48l29.76-42.4a16 16 0 0 1 22.24-4L864-12.960000000000036a16 16 0 0 1 4 22.24l-29.76 42.56a160 160 0 0 1 17.12 22.24l48-17.76a16 16 0 0 1 20.48 9.6l12.64 34.72a16 16 0 0 1-9.6 20.48l-48 17.76A160 160 0 0 1 880 160v7.04l50.24 13.44a16 16 0 0 1 10.88 19.68zM720 64a96 96 0 1 0 96 96 96 96 0 0 0-96-96zM512 288a32 32 0 0 1-32 32h-84a32 32 0 0 1-25.76-13.12L333.44 256l-19.04 44.16A32 32 0 0 1 284.96 320H150.08C138.4 320 128 327.20000000000005 128 336V624c0 8.48 10.4 16 22.08 16h595.84c11.84 0 22.08-7.36 22.08-16v-224a32 32 0 0 1 64 0V622.88a83.36 83.36 0 0 1-86.08 80H150.08a83.36 83.36 0 0 1-86.08-80V336a83.36 83.36 0 0 1 86.08-80h113.76l32.8-76.32A32 32 0 0 1 322.56 160h3.52a32 32 0 0 1 25.92 13.12L412.32 256H480a32 32 0 0 1 32 32zM873.92 832H278.08A83.36 83.36 0 0 1 192 752v-32h64V752c0 8.48 10.4 16 22.08 16h595.84c11.68 0 22.08-7.36 22.08-16v-288c0-8.48-10.4-16-22.08-16H864v-64h9.92A83.36 83.36 0 0 1 960 464V752a83.36 83.36 0 0 1-86.08 80zM258.4 482.4m-54.08 0a54.08 54.08 0 1 1 108.16 0 54.08 54.08 0 1 1-108.16 0ZM448 482.4m-54.08 0a54.08 54.08 0 1 1 108.16 0 54.08 54.08 0 1 1-108.16 0ZM637.6 482.4m-54.08 0a54.08 54.08 0 1 1 108.16 0 54.08 54.08 0 1 1-108.16 0Z"  horiz-adv-x="1024" />

    
    <glyph glyph-name="label-batch-print" unicode="&#59099;" d="M955.36 551.04l-153.92 256a32 32 0 0 1-41.76 12.16l-83.84-42.08-9.92 16A32 32 0 0 1 624 805.6L538.08 761.6l-7.36 12.32a32 32 0 0 1-42.08 12.16l-275.2-140.8a32 32 0 0 1-16-20.16L65.12 132.15999999999997a32 32 0 0 1 22.56-39.2l427.2-114.56a32 32 0 0 1 39.2 22.56L560 22.399999999999977l92.32-24.8a32 32 0 0 1 39.2 22.56l4.16 16 92.32-24.8a32 32 0 0 1 39.2 22.56l132 492.8a32 32 0 0 1-3.84 24.32zM135.2 146.55999999999995l120 448 235.84 120.64 129.76-217.76-114.4-427.52-5.76-21.92zM576 84.32000000000005l109.76 409.6a32 32 0 0 1-3.36 24.64l-112 187.84 55.68 28.64 131.52-218.56-115.68-433.28-4.16-16z m196.96-3.2l-61.44 16 112 416a32 32 0 0 1-3.52 24.8l-111.04 184.16 52.96 26.4 131.68-218.88zM528 506.08a112 112 0 1 1-108-140.64 112 112 0 0 1 28 3.84 112 112 0 0 1 80 136.8z m-66.56-52.8a48 48 0 1 0-53.6 69.92 48 48 0 0 0 12.48 1.6 48 48 0 0 0 41.28-71.52z"  horiz-adv-x="1024" />

    
    <glyph glyph-name="certificate-template" unicode="&#59100;" d="M368 0H163.04A33.6 33.6 0 0 0 128 32V736a33.6 33.6 0 0 0 35.04 32h569.92A33.6 33.6 0 0 0 768 736v-128a32 32 0 0 1 64 0v128a97.6 97.6 0 0 1-99.04 96H163.04A97.6 97.6 0 0 1 64 736v-704a97.6 97.6 0 0 1 99.04-96H368a32 32 0 0 1 0 64zM880 352a192 192 0 1 1-192-192 192 192 0 0 1 192 192z m-192-128a128 128 0 1 0 128 128 128 128 0 0 0-128-128zM688 432a80 80 0 1 1 80-80 80 80 0 0 1-80 80z m0-128a48 48 0 1 0 48 48 48 48 0 0 0-48-48zM704 608a32 32 0 0 1-32 32H224a32 32 0 0 1 0-64h448a32 32 0 0 1 32 32zM464 458.72a32 32 0 0 1-32 32H224a32 32 0 1 1 0-64h208a32 32 0 0 1 32 32zM405.12 341.28H224a32 32 0 0 1 0-64h181.12a32 32 0 1 1 0 64zM384 192H224a32 32 0 0 1 0-64h160a32 32 0 0 1 0 64zM652.64 147.20000000000005a24 24 0 0 1-32.8-8.48l-67.04-114.4-12.16 34.72a24 24 0 0 1-28.32 16l-27.36-6.56L547.04 176a24 24 0 1 1-41.6 24L416 43.360000000000014a24 24 0 0 1 26.4-35.36l60.48 14.56 22.08-63.04a24 24 0 0 1 20.32-16h2.4a24 24 0 0 1 20.64 11.84l93.28 159.04a24 24 0 0 1-8.96 32.8zM949.12 43.360000000000014l-89.92 156A24 24 0 1 1 817.6 176l62.4-108.16-27.36 6.56a24 24 0 0 1-28.32-16l-12.16-34.72-67.04 114.4A24 24 0 1 1 704 114.24000000000001l92.8-159.04a24 24 0 0 1 20.64-11.84h2.4a24 24 0 0 1 20.32 16l22.08 63.04 60.48-14.56a24 24 0 0 1 26.4 35.36z"  horiz-adv-x="1024" />

    
    <glyph glyph-name="summary-template-management" unicode="&#59101;" d="M448 64H160a32 32 0 0 0-32 32V608a32 32 0 0 0 32 32h96v-16a32 32 0 0 1 64 0v16h256v-16a32 32 0 0 1 64 0v16h96a32 32 0 0 0 32-32v-176a32 32 0 0 1 64 0V608a96 96 0 0 1-96 96h-96V752a32 32 0 0 1-64 0v-48H320V752a32 32 0 0 1-64 0v-48h-96a96 96 0 0 1-96-96v-512a96 96 0 0 1 96-96h288a32 32 0 0 1 0 64zM224 512a32 32 0 0 1 0-64h448a32 32 0 0 1 0 64zM512 336a32 32 0 0 1-32 32H224a32 32 0 0 1 0-64h256a32 32 0 0 1 32 32zM416 160a32 32 0 0 1 0 64H224a32 32 0 0 1 0-64zM928 121.27999999999997l-48 17.76A160 160 0 0 1 880 160v7.04l50.24 13.44a16 16 0 0 1 11.36 19.52l-9.6 35.68a16 16 0 0 1-20 11.52l-50.08-13.44a160 160 0 0 1-15.2 23.68L880 297.12a16 16 0 0 1-1.92 22.88l-28.32 23.68a16 16 0 0 1-22.56-1.92l-33.28-39.68a158.72 158.72 0 0 1-39.52 14.4V368a16 16 0 0 1-16 16h-36.8a16 16 0 0 1-16-16v-51.84a158.88 158.88 0 0 1-26.88-8.48l-29.76 42.4a16 16 0 0 1-22.24 4L576 332.96000000000004a16 16 0 0 1-4-22.24l29.76-42.56a160 160 0 0 1-17.12-22.24l-48 17.76a16 16 0 0 1-20.48-9.6l-12.64-34.72a16 16 0 0 1 9.6-20.48l48-17.76A160 160 0 0 1 560 160v-7.04l-50.24-13.44a16 16 0 0 1-11.36-19.52l9.6-35.68a16 16 0 0 1 19.52-11.36l50.08 13.44a160 160 0 0 1 15.2-23.68L560 22.879999999999995a16 16 0 0 1 1.92-22.88l28.32-23.68a16 16 0 0 1 22.56 1.92l33.28 39.68a158.72 158.72 0 0 1 39.52-14.4V-48a16 16 0 0 1 16-16h36.96a16 16 0 0 1 16 16v51.84a158.88 158.88 0 0 1 26.88 8.48l29.76-42.4a16 16 0 0 1 22.24-4L864-12.960000000000036a16 16 0 0 1 4 22.24l-29.76 42.56a160 160 0 0 1 17.12 22.24l48-17.76a16 16 0 0 1 20.48 9.6l12.64 34.72a16 16 0 0 1-8.48 20.64zM720 64a96 96 0 1 0 96 96 96 96 0 0 0-96-96z"  horiz-adv-x="1024" />

    
    <glyph glyph-name="batch-summary-report" unicode="&#59102;" d="M608 432H224a32 32 0 0 1 0-64h384a32 32 0 0 1 0 64zM608 304H224a32 32 0 0 1 0-64h384a32 32 0 0 1 0 64zM608 176H224a32 32 0 0 1 0-64h384a32 32 0 0 1 0 64zM864 768h-128V800a32 32 0 0 1-64 0v-32H480V800a32 32 0 0 1-64 0v-32h-128a96 96 0 0 1-96-96v-48h-32a96 96 0 0 1-96-96v-480a96 96 0 0 1 96-96h576a96 96 0 0 1 96 96v48h32a96 96 0 0 1 96 96V672a96 96 0 0 1-96 96z m-96-720a32 32 0 0 0-32-32H160a32 32 0 0 0-32 32V528a32 32 0 0 0 32 32h128v-32a32 32 0 0 1 64 0v32h192v-32a32 32 0 0 1 64 0v32h128a32 32 0 0 0 32-32v-480z m128 144a32 32 0 0 0-32-32h-32V528a96 96 0 0 1-96 96h-128v32a32 32 0 0 1-64 0v-32H352v32a32 32 0 0 1-64 0v-32h-32v48a32 32 0 0 0 32 32h128v-32a32 32 0 0 1 64 0v32h192v-32a32 32 0 0 1 64 0v32h128a32 32 0 0 0 32-32z"  horiz-adv-x="1024" />

    
    <glyph glyph-name="message-template" unicode="&#59103;" d="M873.92 704H278.08A83.36 83.36 0 0 1 192 624v-49.44H150.08a83.36 83.36 0 0 1-86.08-80V208a83.36 83.36 0 0 1 86.08-80h113.76l32.8-76.32A32 32 0 0 1 322.56 32h3.52a32 32 0 0 1 25.92 13.12L412.32 128h333.6A83.36 83.36 0 0 1 832 208v49.12h41.92a83.36 83.36 0 0 1 86.08 80V624a83.36 83.36 0 0 1-86.08 80zM768 208c0-8.48-10.4-16-22.08-16H396a32 32 0 0 1-25.92-13.12L333.44 128l-19.04 44.16A32 32 0 0 1 284.96 192H150.08C138.4 192 128 199.20000000000005 128 208V496c0 8.48 10.4 16 22.08 16h595.84c11.84 0 22.08-7.36 22.08-16z m128 129.28c0-8.48-10.4-16-22.08-16H832V494.88a83.36 83.36 0 0 1-86.08 80H256V624c0 8.48 10.4 16 22.08 16h595.84c11.84 0 22.08-7.36 22.08-16zM258.4 354.4m-54.08 0a54.08 54.08 0 1 1 108.16 0 54.08 54.08 0 1 1-108.16 0ZM448 354.4m-54.08 0a54.08 54.08 0 1 1 108.16 0 54.08 54.08 0 1 1-108.16 0ZM637.6 354.4m-54.08 0a54.08 54.08 0 1 1 108.16 0 54.08 54.08 0 1 1-108.16 0Z"  horiz-adv-x="1024" />

    
    <glyph glyph-name="already-read" unicode="&#59091;" d="M657.066667-34.13333299999999c-8.533333 0-17.066667 4.266667-21.333334 8.533333l-132.266666 132.266667c-12.8 12.8-12.8 29.866667 0 42.666666 12.8 12.8 29.866667 12.8 42.666666 0l110.933334-110.933333 277.333333 277.333333c12.8 12.8 29.866667 12.8 42.666667 0 12.8-12.8 12.8-29.866667 0-42.666666l-298.666667-298.666667c-4.266667-4.266667-12.8-8.533333-21.333333-8.533333zM512-42.66666699999996H157.866667c-38.4 0-72.533333 29.866667-72.533334 72.533334V780.8C85.333333 819.2 119.466667 853.333333 157.866667 853.333333h541.866666c38.4 0 68.266667-34.133333 68.266667-72.533333v-503.466667c0-12.8-8.533333-21.333333-21.333333-21.333333s-21.333333 8.533333-21.333334 21.333333V780.8c0 17.066667-12.8 29.866667-25.6 29.866667H157.866667c-17.066667 0-29.866667-12.8-29.866667-29.866667v-755.2c0-12.8 12.8-25.6 29.866667-25.6H512c12.8 0 21.333333-8.533333 21.333333-21.333333s-8.533333-21.333333-21.333333-21.333334zM652.8 640H200.533333c-12.8 0-21.333333 8.533333-21.333333 21.333333s8.533333 21.333333 21.333333 21.333334h452.266667c12.8 0 21.333333-8.533333 21.333333-21.333334s-8.533333-21.333333-21.333333-21.333333zM652.8 512H200.533333c-8.533333 0-21.333333 12.8-21.333333 21.333333s12.8 21.333333 21.333333 21.333334h452.266667c12.8 0 21.333333-8.533333 21.333333-21.333334s-8.533333-21.333333-21.333333-21.333333zM558.933333 384H200.533333c-12.8 0-21.333333 8.533333-21.333333 21.333333s12.8 21.333333 21.333333 21.333334h358.4c12.8 0 21.333333-8.533333 21.333334-21.333334s-8.533333-21.333333-21.333334-21.333333zM443.733333 256H200.533333c-12.8 0-21.333333 8.533333-21.333333 21.333333s12.8 21.333333 21.333333 21.333334h238.933334c12.8 0 21.333333-8.533333 21.333333-21.333334s-4.266667-21.333333-17.066667-21.333333z"  horiz-adv-x="1024" />

    
    <glyph glyph-name="transfer-batch" unicode="&#59088;" d="M533.333333 221.866667l-157.866666-46.933334v-213.333333l145.066666-46.933333 157.866667 46.933333v213.333333l-145.066667 46.933334z m128-243.2l-128-38.4v174.933333l128 38.4v-174.933333zM866.133333 221.866667l-157.866666-46.933334v-213.333333L853.333333-85.33333300000004l157.866667 46.933333v213.333333l-145.066667 46.933334z m128-243.2l-128-38.4v174.933333l128 38.4v-174.933333zM712.533333 499.2L554.666667 448v-213.333333l145.066666-46.933334 157.866667 46.933334v213.333333l-145.066667 51.2z m128-243.2l-128-38.4v174.933333l128 38.4V256zM187.733333 840.533333l-140.8-42.666666v-192l128-42.666667 140.8 42.666667V797.866667l-128 42.666666z m115.2-221.866666l-115.2-34.133334V742.4l115.2 34.133333v-157.866666zM465.066667 430.933333c-25.6 51.2-68.266667 98.133333-115.2 136.533334-42.666667-8.533333-76.8-21.333333-115.2-38.4 68.266667-29.866667 123.733333-76.8 166.4-128l-55.466667-25.6 136.533333-51.2 42.666667 140.8-59.733333-34.133334z"  horiz-adv-x="1024" />

    
    <glyph glyph-name="unseal" unicode="&#59085;" d="M921.6 469.333333H234.666667c-34.133333 0-72.533333-25.6-76.8-55.466666l-81.066667-337.066667V686.933333c0 17.066667 12.8 29.866667 25.6 29.866667h401.066667v-110.933333c0-12.8 8.533333-21.333333 21.333333-21.333334l315.733333-4.266666v-51.2c0-12.8 8.533333-21.333333 21.333334-21.333334s21.333333 8.533333 21.333333 21.333334V605.866667c0 12.8-8.533333 21.333333-21.333333 21.333333l-315.733334 4.266667V738.133333c0 4.266667-4.266667 12.8-4.266666 17.066667-4.266667 4.266667-8.533333 8.533333-17.066667 4.266667H102.4C64 759.466667 34.133333 725.333333 34.133333 686.933333v-674.133333c0-42.666667 29.866667-72.533333 68.266667-72.533333H793.6c34.133333 0 72.533333 25.6 76.8 55.466666l98.133333 426.666667c12.8 21.333333-12.8 46.933333-46.933333 46.933333zM823.466667 529.066667zM930.133333 742.4C883.2 806.4 768 908.8 554.666667 772.266667c0 0 213.333333 68.266667 294.4-55.466667l-46.933334-17.066667 128-68.266666 46.933334 128-46.933334-17.066667z"  horiz-adv-x="1024" />

    
    <glyph glyph-name="check-square" unicode="&#59089;" d="M913.493333 853.333333H110.506667A67.84 67.84 0 0 1 42.666667 785.493333v-802.986666A67.84 67.84 0 0 1 110.506667-85.33333300000004h802.986666A67.84 67.84 0 0 1 981.333333-17.493333000000007V785.493333A67.84 67.84 0 0 1 913.493333 853.333333z m-154.453333-360.96L469.333333 201.386667a52.053333 52.053333 0 0 0-73.813333 0l-128 128A52.48 52.48 0 1 0 341.333333 403.626667l92.586667-92.16 253.866667 253.866666a52.48 52.48 0 0 0 73.813333-74.24z"  horiz-adv-x="1024" />

    
    <glyph glyph-name="uncheck-square" unicode="&#59090;" d="M759.04 566.613333a52.48 52.48 0 0 1-73.813333 0l-253.866667-256-92.586667 94.293334a52.053333 52.053333 0 0 1-36.693333 15.36 52.48 52.48 0 0 1-52.053333-52.48 52.906667 52.906667 0 0 1 15.36-37.12l128-128a52.053333 52.053333 0 0 1 73.813333 0l290.986667 290.986666a52.48 52.48 0 0 1 0.853333 72.96zM877.226667-81.493333H146.773333a100.693333 100.693333 0 0 0-100.266666 100.266666V749.226667a100.693333 100.693333 0 0 0 100.266666 100.266666h730.453334a100.693333 100.693333 0 0 0 100.266666-100.266666v-730.453334a100.693333 100.693333 0 0 0-100.266666-100.266666z m-730.453334 853.333333a22.613333 22.613333 0 0 1-22.613333-22.613333v-730.453334a22.613333 22.613333 0 0 1 22.613333-22.613333h730.453334a22.613333 22.613333 0 0 1 22.613333 22.613333V749.226667a22.613333 22.613333 0 0 1-22.613333 22.613333z"  horiz-adv-x="1024" />

    
    <glyph glyph-name="sample" unicode="&#59086;" d="M606.293333-93.866667H203.52a53.76 53.76 0 0 0-45.653333 26.453334 64 64 0 0 0-2.56 61.866666L298.666667 276.48v147.626667l-56.746667 37.973333a39.253333 39.253333 0 0 0-5.12 42.666667 34.986667 34.986667 0 0 0 31.573333 20.906666h271.786667a35.84 35.84 0 0 0 32-21.333333 39.253333 39.253333 0 0 0-6.4-42.666667l-5.12-4.266666L512 426.666667v-151.466667l143.36-282.026667a64 64 0 0 0-2.56-61.866666 53.76 53.76 0 0 0-46.506667-25.173334zM288.426667 481.706667l52.906666-34.133334v-181.333333l-148.053333-290.986667a22.613333 22.613333 0 0 1 0-20.48 11.946667 11.946667 0 0 1 9.386667-5.973333h402.773333a11.946667 11.946667 0 0 1 9.386667 5.973333 21.333333 21.333333 0 0 1 0 20.48L469.333333 266.24V452.266667l49.92 29.44zM846.08 846.506667L826.453333 866.133333a25.173333 25.173333 0 0 1-35.413333 0l-51.2-51.2-35.413333 35.413334a24.746667 24.746667 0 0 1-35.413334 0l-8.106666-7.68a25.173333 25.173333 0 0 1 0-35.413334l20.48-20.906666-136.533334-140.373334a27.733333 27.733333 0 0 1 2.133334-33.706666l-21.76-21.333334a32 32 0 0 1 0-45.226666 31.146667 31.146667 0 0 1 45.226666 0l21.76 21.76a26.453333 26.453333 0 0 1 33.28 0L768 702.72l23.893333-23.466667a23.466667 23.466667 0 0 1 35.413334 0l7.68 8.106667a25.173333 25.173333 0 0 1-2.133334 35.413333l-36.266666 36.266667L846.08 810.666667a25.173333 25.173333 0 0 1 0 35.84z m-232.106667-265.386667a5.973333 5.973333 0 0 0-9.813333 0L597.333333 584.96c-3.84 3.84-11.946667 5.973333-15.786666 0l-26.88-25.6a9.813333 9.813333 0 1 0-13.653334 13.653333l27.733334 27.733334c3.84 3.84 3.84 9.813333-2.133334 15.786666l-5.973333 5.546667a9.813333 9.813333 0 0 0 0 9.813333l128 128 12.373333 12.373334 52.053334-52.053334z m204.373334 128c2.133333 0 2.133333-3.84 0-5.973333l-7.68-8.106667a3.413333 3.413333 0 0 0-5.973334 0l-128 128a4.266667 4.266667 0 0 0 0 5.973333l8.106667 7.68a3.413333 3.413333 0 0 0 5.546667 0l35.413333-35.413333 56.32-55.893333zM551.68 530.773333a39.68 39.68 0 0 0-27.306667 11.946667 35.84 35.84 0 0 0 0 51.2l19.2 18.773333a30.72 30.72 0 0 0 0 36.266667l135.68 137.386667-17.92 17.92a29.44 29.44 0 0 0-2.133333 42.666666l6.826667 6.4A24.32 24.32 0 0 0 682.666667 861.866667a36.266667 36.266667 0 0 0 24.746666-8.106667l32.853334-32.853333L788.053333 869.12a28.586667 28.586667 0 0 0 42.666667 0l20.053333-19.626667a29.866667 29.866667 0 0 0 0-42.666666l-49.493333-47.786667 33.706667-33.706667a28.16 28.16 0 0 0 2.133333-42.666666l-8.106667-8.106667a25.6 25.6 0 0 0-18.346666-9.386667 30.72 30.72 0 0 0-21.333334 9.386667l-21.333333 22.613333-136.533333-136.96a29.866667 29.866667 0 0 0-35.84 0l-19.2-19.2a34.986667 34.986667 0 0 0-24.746667-10.24z m128 244.48l-130.56-132.266666a23.893333 23.893333 0 0 1 2.133333-28.16l2.56-2.56-24.32-24.32a29.44 29.44 0 0 1 42.666667-42.666667l24.32 24.32 2.986667-2.56a22.613333 22.613333 0 0 1 27.733333-2.133333L768 708.6933329999999l25.6-26.026666a23.893333 23.893333 0 0 1 15.786667-6.826667 17.066667 17.066667 0 0 1 12.8 6.4l8.106666 8.106667a21.333333 21.333333 0 0 1 0 29.866666l-39.68 39.253334 53.333334 55.04a20.906667 20.906667 0 0 1 0 29.44L823.466667 863.146667a21.333333 21.333333 0 0 1-29.866667 0L739.84 810.666667l-38.4 37.973333a24.32 24.32 0 0 1-16.213333 4.693333 16.213333 16.213333 0 0 1-11.093334-5.973333l-8.106666-8.106667a20.906667 20.906667 0 0 1 0-29.44l17.493333-17.92 3.413333 3.413334v-5.973334l2.56-2.986666-11.093333-11.093334z m-131.84-223.146666a15.786667 15.786667 0 0 0-9.813333 4.266666 14.506667 14.506667 0 0 0 0 19.626667l27.733333 27.733333a4.693333 4.693333 0 0 1 0 2.986667 10.24 10.24 0 0 1-3.413333 6.826667l-5.973334 5.973333a12.8 12.8 0 0 0 0 14.506667l142.933334 142.506666 58.026666-58.026666-140.373333-140.373334a10.666667 10.666667 0 0 0-8.106667-3.413333 11.52 11.52 0 0 0-7.68 3.413333L597.333333 581.5466670000001a11.52 11.52 0 0 1-7.253333 3.413333h-2.986667l-29.44-30.293333a14.08 14.08 0 0 0-9.813333-2.56z m16.213333 77.653333a10.24 10.24 0 0 1 0-4.693333l5.973334-5.973334a17.92 17.92 0 0 0 5.973333-12.373333 11.093333 11.093333 0 0 0-4.266667-8.96l-27.306666-27.733333a5.12 5.12 0 0 1 0-7.68 5.12 5.12 0 0 1 8.106666 0l27.306667 27.306666a11.946667 11.946667 0 0 0 8.533333 3.413334 20.906667 20.906667 0 0 0 12.8-5.12l5.12-3.413334h4.693334l134.826666 134.826667-46.506666 45.653333-9.386667-9.386666z m243.626667 59.733333a8.533333 8.533333 0 0 0-5.973333 2.56l-128 128a7.68 7.68 0 0 0 0 11.52l8.96 8.106667a8.106667 8.106667 0 0 0 5.973333 2.56 7.68 7.68 0 0 0 5.546667-2.56l128-128a8.106667 8.106667 0 0 0 2.56-5.973333 7.68 7.68 0 0 0-2.56-5.546667l-7.68-8.106667a9.386667 9.386667 0 0 0-6.826667-2.56z m-119.893333 144.213334l-8.106667-7.68 128-128 7.68 7.68z"  horiz-adv-x="1024" />

    
    <glyph glyph-name="sampling-parts" unicode="&#59087;" d="M472.746667-64h-6.826667a128 128 0 0 0-128 128V741.5466670000001A47.786667 47.786667 0 0 0 386.56 789.333333h165.546667a47.786667 47.786667 0 0 0 47.786666-47.786666v-678.826667a128 128 0 0 0-127.146666-126.72z m-85.333334 810.666667a5.12 5.12 0 0 1-5.12-5.12v-678.826667a85.333333 85.333333 0 0 1 85.333334-85.333333h6.826666a85.333333 85.333333 0 0 1 85.333334 85.333333V741.5466670000001A5.12 5.12 0 0 1 554.666667 746.666667zM516.266667 622.0799999999999H360.106667a21.333333 21.333333 0 0 0-21.333334 21.333333 21.76 21.76 0 0 0 21.333334 21.333334h156.16a21.76 21.76 0 0 0 21.333333-21.333334 21.333333 21.333333 0 0 0-21.333333-21.333333zM453.546667 559.7866670000001H360.106667a21.333333 21.333333 0 0 0-21.333334 21.333333 21.76 21.76 0 0 0 21.333334 21.333333h93.44a21.333333 21.333333 0 0 0 21.333333-21.333333 21.333333 21.333333 0 0 0-21.333333-21.333333zM516.266667 497.066667H360.106667a21.76 21.76 0 0 0-21.333334 21.333333 21.333333 21.333333 0 0 0 21.333334 21.333333h156.16a21.333333 21.333333 0 0 0 21.333333-21.333333 21.76 21.76 0 0 0-21.333333-21.333333zM453.546667 434.773333H360.106667a21.76 21.76 0 0 0-21.333334 21.333334 21.333333 21.333333 0 0 0 21.333334 21.333333h93.44a21.333333 21.333333 0 0 0 21.333333-21.333333 21.333333 21.333333 0 0 0-21.333333-21.333334zM516.266667 372.48H360.106667a21.333333 21.333333 0 1 0 0 42.666667h156.16a21.333333 21.333333 0 0 0 0-42.666667zM469.333333 310.18666700000006H360.106667a21.333333 21.333333 0 1 0 0 42.666666H469.333333a21.333333 21.333333 0 0 0 0-42.666666z"  horiz-adv-x="1024" />

    
    <glyph glyph-name="device-instance-search" unicode="&#59081;" d="M768 226.133333l-106.666667 106.666667c29.866667 34.133333 46.933333 81.066667 46.933334 132.266667 0 115.2-93.866667 209.066667-209.066667 209.066666s-209.066667-93.866667-209.066667-209.066666S379.733333 256 494.933333 256c51.2 0 93.866667 17.066667 132.266667 46.933333l106.666667-106.666666c4.266667-4.266667 8.533333-8.533333 17.066666-8.533334 4.266667 0 12.8 4.266667 17.066667 8.533334 8.533333 8.533333 8.533333 21.333333 0 29.866666zM494.933333 298.66666699999996c-89.6 0-166.4 72.533333-166.4 166.4s72.533333 166.4 166.4 166.4c89.6 0 166.4-72.533333 166.4-166.4S588.8 298.66666699999996 494.933333 298.66666699999996zM917.333333 128H213.333333V704c0 4.266667-4.266667 12.8-4.266666 17.066667l-85.333334 85.333333c-8.533333 4.266667-25.6 4.266667-34.133333 0s-4.266667-25.6 0-34.133333L170.666667 695.466667V128H64c-12.8 0-21.333333-8.533333-21.333333-21.333333s8.533333-21.333333 21.333333-21.333334h136.533333c-12.8-17.066667-25.6-38.4-25.6-64 0-55.466667 42.666667-98.133333 98.133334-98.133333s98.133333 42.666667 98.133333 98.133333c0 25.6-8.533333 46.933333-25.6 64h277.333333c-12.8-17.066667-25.6-38.4-25.6-64 0-55.466667 42.666667-98.133333 98.133334-98.133333s98.133333 42.666667 98.133333 98.133333c0 25.6-8.533333 46.933333-25.6 64h136.533333c12.8 0 21.333333 8.533333 21.333334 21.333334 12.8 12.8 4.266667 21.333333-8.533334 21.333333zM349.866667 21.33333300000004c0-38.4-29.866667-72.533333-72.533334-72.533333s-72.533333 29.866667-72.533333 72.533333c0 29.866667 17.066667 51.2 42.666667 64h59.733333c25.6-12.8 42.666667-34.133333 42.666667-64z m426.666666 0c0-38.4-29.866667-72.533333-72.533333-72.533333s-72.533333 29.866667-72.533333 72.533333c0 29.866667 17.066667 51.2 42.666666 64h59.733334c25.6-12.8 42.666667-34.133333 42.666666-64z"  horiz-adv-x="1024" />

    
    <glyph glyph-name="post-batch-details" unicode="&#59082;" d="M320 42.66666699999996h-170.666667c-34.133333 0-64 29.866667-64 64v597.333333C85.333333 738.133333 115.2 768 149.333333 768h426.666667c34.133333 0 64-29.866667 64-64V640c0-12.8-8.533333-21.333333-21.333333-21.333333S597.333333 627.2 597.333333 640V704c0 12.8-8.533333 21.333333-21.333333 21.333333h-426.666667c-12.8 0-21.333333-8.533333-21.333333-21.333333v-597.333333c0-12.8 8.533333-21.333333 21.333333-21.333334h170.666667c12.8 0 21.333333-8.533333 21.333333-21.333333s-8.533333-21.333333-21.333333-21.333333zM486.4 554.666667H196.266667c-12.8 0-25.6 8.533333-25.6 21.333333s12.8 21.333333 25.6 21.333333h294.4c8.533333 0 21.333333-8.533333 21.333333-21.333333s-12.8-21.333333-25.6-21.333333zM401.066667 384H196.266667c-12.8 0-25.6 8.533333-25.6 21.333333s12.8 21.333333 25.6 21.333334h204.8c12.8 0 25.6-8.533333 25.6-21.333334s-12.8-21.333333-25.6-21.333333zM358.4 213.33333300000004H196.266667c-12.8 0-25.6 8.533333-25.6 21.333334s12.8 21.333333 25.6 21.333333h162.133333c12.8 0 25.6-8.533333 25.6-21.333333s-12.8-21.333333-25.6-21.333334zM614.4-51.200000000000045h-166.4c-21.333333 0-38.4 8.533333-51.2 21.333333-8.533333 12.8-12.8 25.6-12.8 42.666667 0 55.466667 17.066667 115.2 51.2 162.133333 25.6 38.4 59.733333 68.266667 102.4 85.333334-12.8 12.8-21.333333 25.6-29.866667 38.4-12.8 21.333333-17.066667 51.2-17.066666 81.066666 0 42.666667 17.066667 81.066667 42.666666 110.933334 29.866667 29.866667 64 46.933333 106.666667 46.933333 81.066667 0 149.333333-68.266667 149.333333-157.866667 0-46.933333-17.066667-89.6-46.933333-119.466666 38.4-17.066667 72.533333-46.933333 98.133333-85.333334 34.133333-46.933333 51.2-106.666667 51.2-162.133333 0-12.8 0-29.866667-8.533333-42.666667-8.533333-17.066667-29.866667-21.333333-55.466667-21.333333h-213.333333zM554.666667 469.333333c-21.333333-21.333333-34.133333-55.466667-34.133334-85.333333 0-46.933333 21.333333-85.333333 55.466667-106.666667 4.266667-4.266667 8.533333-8.533333 8.533333-17.066666s-4.266667-12.8-12.8-12.8c-89.6-25.6-157.866667-123.733333-157.866666-226.133334 0-21.333333 8.533333-34.133333 29.866666-34.133333h371.2c8.533333 0 25.6 0 29.866667 8.533333 4.266667 4.266667 4.266667 12.8 4.266667 25.6 0 102.4-64 200.533333-153.6 226.133334-8.533333 0-12.8 8.533333-12.8 12.8 0 8.533333 4.266667 12.8 8.533333 17.066666 34.133333 21.333333 55.466667 59.733333 55.466667 106.666667 0 68.266667-51.2 123.733333-115.2 123.733333-25.6-4.266667-55.466667-17.066667-76.8-38.4zM938.666667 277.33333300000004c-21.333333 29.866667-42.666667 51.2-72.533334 64 21.333333 21.333333 34.133333 51.2 34.133334 89.6 0 68.266667-51.2 123.733333-115.2 123.733334-21.333333 0-38.4-4.266667-55.466667-17.066667 8.533333-8.533333 21.333333-12.8 29.866667-21.333333 8.533333 4.266667 17.066667 4.266667 29.866666 4.266666 46.933333 0 81.066667-38.4 81.066667-89.6 0-34.133333-12.8-64-38.4-76.8-4.266667-4.266667-8.533333-8.533333-8.533333-17.066666s4.266667-12.8 12.8-12.8c68.266667-21.333333 115.2-93.866667 115.2-170.666667 0-4.266667 0-12.8-4.266667-17.066667 0-4.266667-8.533333-4.266667-17.066667-4.266666H896c4.266667-12.8 8.533333-21.333333 12.8-34.133334h21.333333c21.333333 0 38.4 8.533333 46.933334 21.333334 8.533333 12.8 8.533333 21.333333 8.533333 34.133333-4.266667 42.666667-21.333333 89.6-46.933333 123.733333z"  horiz-adv-x="1024" />

    
    <glyph glyph-name="perform-equipment-order" unicode="&#59083;" d="M917.333333 128H213.333333V704c0 4.266667-4.266667 12.8-4.266666 17.066667l-85.333334 85.333333c-8.533333 4.266667-25.6 4.266667-34.133333 0s-4.266667-25.6 0-34.133333L170.666667 695.466667V128H64c-12.8 0-21.333333-8.533333-21.333333-21.333333s8.533333-21.333333 21.333333-21.333334h136.533333c-12.8-17.066667-25.6-38.4-25.6-64 0-55.466667 42.666667-98.133333 98.133334-98.133333s98.133333 42.666667 98.133333 98.133333c0 25.6-8.533333 46.933333-25.6 64h277.333333c-12.8-17.066667-25.6-38.4-25.6-64 0-55.466667 42.666667-98.133333 98.133334-98.133333s98.133333 42.666667 98.133333 98.133333c0 25.6-8.533333 46.933333-25.6 64h136.533333c12.8 0 21.333333 8.533333 21.333334 21.333334 12.8 12.8 4.266667 21.333333-8.533334 21.333333zM349.866667 21.33333300000004c0-38.4-29.866667-72.533333-72.533334-72.533333s-72.533333 29.866667-72.533333 72.533333c0 29.866667 17.066667 51.2 42.666667 64h59.733333c25.6-12.8 42.666667-34.133333 42.666667-64z m426.666666 0c0-38.4-29.866667-72.533333-72.533333-72.533333s-72.533333 29.866667-72.533333 72.533333c0 29.866667 17.066667 51.2 42.666666 64h59.733334c25.6-12.8 42.666667-34.133333 42.666666-64zM533.333333 192c-119.466667 0-213.333333 93.866667-213.333333 213.333333s93.866667 213.333333 213.333333 213.333334 213.333333-93.866667 213.333334-213.333334-93.866667-213.333333-213.333334-213.333333z m0 384c-93.866667 0-170.666667-76.8-170.666666-170.666667s76.8-170.666667 170.666666-170.666666 170.666667 76.8 170.666667 170.666666-76.8 170.666667-170.666667 170.666667zM473.6 486.4v-162.133333c0-12.8 17.066667-25.6 29.866667-17.066667l136.533333 81.066667c12.8 8.533333 12.8 25.6 0 34.133333l-136.533333 81.066667c-12.8 8.533333-29.866667 0-29.866667-17.066667z"  horiz-adv-x="1024" />

    
    <glyph glyph-name="perform-operate-order" unicode="&#59084;" d="M755.2 482.133333c-17.066667 0-29.866667-4.266667-42.666667-12.8-8.533333 29.866667-38.4 55.466667-72.533333 55.466667-17.066667 0-29.866667-4.266667-42.666667-12.8-8.533333 29.866667-38.4 55.466667-72.533333 55.466667-12.8 0-25.6-4.266667-38.4-8.533334V635.733333c0 42.666667-34.133333 76.8-76.8 76.8s-81.066667-34.133333-81.066667-76.8v-307.2l-46.933333 46.933334c-29.866667 29.866667-85.333333 25.6-110.933333 0-25.6-25.6-42.666667-81.066667-4.266667-115.2l221.866667-221.866667 12.8-12.8c38.4-34.133333 85.333333-51.2 183.466666-51.2 221.866667 0 243.2 119.466667 243.2 268.8v157.866667c4.266667 42.666667-29.866667 81.066667-72.533333 81.066666z m34.133333-238.933333c0-123.733333 0-226.133333-200.533333-226.133333-85.333333 0-136.533333 17.066667-174.933333 59.733333l-209.066667 209.066667c-17.066667 17.066667-12.8 42.666667 0 55.466666 17.066667 17.066667 42.666667 17.066667 59.733333 0l68.266667-68.266666c25.6-25.6 46.933333-42.666667 46.933333-42.666667V627.2c0 21.333333 17.066667 38.4 38.4 38.4s34.133333-17.066667 34.133334-38.4v-256c0-12.8 8.533333-21.333333 21.333333-21.333333s21.333333 8.533333 21.333333 21.333333V477.866667c0 21.333333 17.066667 38.4 34.133334 38.4 0 0 38.4 0 38.4-38.4V337.06666700000005c0-12.8 8.533333-21.333333 21.333333-21.333334s21.333333 8.533333 21.333333 21.333334V435.2c0 21.333333 12.8 38.4 34.133334 38.4 0 0 38.4-4.266667 38.4-38.4v-123.733333c0-12.8 8.533333-21.333333 21.333333-21.333334s21.333333 8.533333 21.333333 21.333334v85.333333c0 21.333333 17.066667 38.4 34.133334 38.4 0 0 38.4 0 38.4-38.4v-153.6zM418.133333 814.933333h-8.533333c-17.066667 0-38.4-4.266667-55.466667-8.533333-34.133333-8.533333-59.733333-29.866667-76.8-55.466667-12.8-21.333333-21.333333-38.4-25.6-59.733333 0-8.533333-4.266667-21.333333-4.266666-29.866667 0-51.2 21.333333-93.866667 59.733333-123.733333V627.2c-4.266667 8.533333-8.533333 21.333333-8.533333 34.133333 0 17.066667 4.266667 34.133333 12.8 46.933334 17.066667 25.6 38.4 46.933333 72.533333 55.466666 8.533333 0 17.066667 4.266667 25.6 4.266667 55.466667 0 102.4-46.933333 106.666667-102.4 4.266667-8.533333 4.266667-21.333333 4.266666-29.866667v-42.666666h12.8c8.533333 0 12.8 0 17.066667-4.266667 12.8 21.333333 17.066667 46.933333 17.066667 72.533333-4.266667 81.066667-68.266667 149.333333-149.333334 153.6zM755.2 482.133333c-17.066667 0-29.866667-4.266667-42.666667-12.8-8.533333 29.866667-38.4 55.466667-72.533333 55.466667-17.066667 0-29.866667-4.266667-42.666667-12.8-8.533333 29.866667-38.4 55.466667-72.533333 55.466667-12.8 0-25.6-4.266667-38.4-8.533334V635.733333c0 42.666667-34.133333 76.8-76.8 76.8s-81.066667-34.133333-81.066667-76.8v-307.2l-46.933333 46.933334c-29.866667 29.866667-85.333333 25.6-110.933333 0-25.6-25.6-42.666667-81.066667-4.266667-115.2l221.866667-221.866667 12.8-12.8c38.4-34.133333 85.333333-51.2 183.466666-51.2 221.866667 0 243.2 119.466667 243.2 268.8v157.866667c4.266667 42.666667-29.866667 81.066667-72.533333 81.066666z m34.133333-238.933333c0-123.733333 0-226.133333-200.533333-226.133333-85.333333 0-136.533333 17.066667-174.933333 59.733333l-209.066667 209.066667c-17.066667 17.066667-12.8 42.666667 0 55.466666 17.066667 17.066667 42.666667 17.066667 59.733333 0l68.266667-68.266666c25.6-25.6 46.933333-42.666667 46.933333-42.666667V627.2c0 21.333333 17.066667 38.4 38.4 38.4s34.133333-17.066667 34.133334-38.4v-256c0-12.8 8.533333-21.333333 21.333333-21.333333s21.333333 8.533333 21.333333 21.333333V477.866667c0 21.333333 17.066667 38.4 34.133334 38.4 0 0 38.4 0 38.4-38.4V337.06666700000005c0-12.8 8.533333-21.333333 21.333333-21.333334s21.333333 8.533333 21.333333 21.333334V435.2c0 21.333333 12.8 38.4 34.133334 38.4 0 0 38.4-4.266667 38.4-38.4v-123.733333c0-12.8 8.533333-21.333333 21.333333-21.333334s21.333333 8.533333 21.333333 21.333334v85.333333c0 21.333333 17.066667 38.4 34.133334 38.4 0 0 38.4 0 38.4-38.4v-153.6z"  horiz-adv-x="1024" />

    
    <glyph glyph-name="loading" unicode="&#59080;" d="M554.666667 512l162.133333 136.533333H640v128h-170.666667v-128H392.533333zM145.066667 170.66666699999996l102.4 170.666666h157.866666l12.8 42.666667H256V832v4.266667 4.266666 4.266667s0 4.266667-4.266667 4.266667L247.466667 853.333333h-4.266667-4.266667-4.266666-4.266667-4.266667-4.266666l-4.266667-4.266666-128-213.333334c-4.266667-8.533333-4.266667-12.8-4.266667-17.066666v-477.866667s0-4.266667 4.266667-4.266667l4.266667-4.266666c4.266667-4.266667 8.533333-4.266667 12.8-4.266667-12.8-17.066667-21.333333-38.4-21.333334-64C85.333333 4.266666999999984 132.266667-42.66666699999996 192-42.66666699999996S298.666667 4.266666999999984 298.666667 64c0 25.6-8.533333 46.933333-21.333334 64h76.8l12.8 42.666667H145.066667zM128 614.4l85.333333 140.8v-388.266667l-85.333333-140.8V614.4zM192 0c-34.133333 0-64 29.866667-64 64S157.866667 128 192 128s64-29.866667 64-64S226.133333 0 192 0zM362.666667 170.66666699999996l-8.533334-42.666667h213.333334l8.533333 42.666667zM938.666667 366.93333299999995v4.266667 4.266667s0 4.266667-4.266667 4.266666l-4.266667 4.266667h-4.266666H810.666667v-42.666667h68.266666l-102.4-170.666666h-200.533333l-12.8-42.666667h98.133333c-12.8-17.066667-21.333333-38.4-21.333333-64 0-59.733333 46.933333-106.666667 106.666667-106.666667s106.666667 46.933333 106.666666 106.666667c0 34.133333-17.066667 64-38.4 81.066667l123.733334 204.8v4.266666 12.8c0-4.266667 0-4.266667 0 0 0-4.266667 0-4.266667 0 0zM746.666667 0c-34.133333 0-64 29.866667-64 64s29.866667 64 64 64 64-29.866667 64-64-29.866667-64-64-64zM418.133333 469.333333l-136.533333-42.666666v-183.466667l123.733333-38.4 136.533334 42.666667v183.466666L418.133333 469.333333z m110.933334-213.333333l-110.933334-34.133333v149.333333l110.933334 34.133333V256zM691.2 469.333333L554.666667 426.666667v-183.466667l123.733333-38.4 136.533333 42.666667v183.466666l-123.733333 38.4z m110.933333-213.333333l-110.933333-34.133333v149.333333l110.933333 34.133333V256z"  horiz-adv-x="1024" />

    
    <glyph glyph-name="production-batch-performance" unicode="&#59076;" d="M512 733.866667L347.733333 597.76H426.666667v-128h171.52v128h78.08L512 733.866667zM320.426667 328.53333299999997a6.4 6.4 0 0 1-2.56 3.84L229.546667 384a14.08 14.08 0 0 1-8.106667 0l-167.253333-24.32a4.266667 4.266667 0 0 1-2.986667 0 8.106667 8.106667 0 0 1-2.133333-4.266667v-187.733333a12.373333 12.373333 0 0 1 6.826666-11.093333l85.333334-48.213334a11.52 11.52 0 0 1 5.12 0l167.68 24.32a12.8 12.8 0 0 1 10.666666 12.8v177.493334a11.946667 11.946667 0 0 1-4.266666 5.546666z m-99.413334 29.013334l48.213334-26.88-16.213334-2.56-108.8-15.786667-40.533333 22.613333-8.106667 6.4z m-152.32-32.426667l32.853334-18.773333 27.306666-14.933334v-155.733333L68.266667 170.66666699999996z m85.333334-196.693333v159.146666L298.666667 308.05333299999995v-159.146666zM655.36 328.53333299999997l-2.56 3.84-85.333333 47.786667A11.946667 11.946667 0 0 1 554.666667 384l-167.253334-24.32a3.413333 3.413333 0 0 1-2.986666 0h-2.133334a13.226667 13.226667 0 0 1 0-4.266667v-187.733333a12.373333 12.373333 0 0 1 6.826667-11.093333l85.333333-48.213334a11.946667 11.946667 0 0 1 5.546667 0l167.253333 24.32a12.8 12.8 0 0 1 11.093334 12.8v177.493334a11.946667 11.946667 0 0 1-2.986667 5.546666zM554.666667 357.54666699999996l48.213333-26.88-16.213333-2.56-109.226667-15.786667-40.106667 22.613333-6.826666 6.4z m-152.746667-32.426667l33.28-18.773333 27.306667-14.933334v-155.733333L403.2 170.66666699999996z m85.333333-196.693333v159.146666l142.08 20.48v-159.146666zM990.293333 328.53333299999997a9.386667 9.386667 0 0 1-2.986666 3.84l-85.333334 47.786667a12.8 12.8 0 0 1-7.68 0l-168.96-20.48a4.693333 4.693333 0 0 1-3.413333 0 13.226667 13.226667 0 0 1-2.133333-4.266667v-187.733333a12.8 12.8 0 0 1 6.4-11.093333l85.333333-48.213334a11.946667 11.946667 0 0 1 5.546667 0l164.266666 16.64a12.8 12.8 0 0 1 11.093334 12.8v185.173334a11.946667 11.946667 0 0 1-2.133334 5.546666z m-99.84 29.013334l48.213334-26.88-16.213334-2.56-108.8-15.786667-40.533333 22.613333-7.68 6.4z m-152.32-32.426667l33.28-18.773333 27.306667-14.933334v-155.733333L737.706667 170.66666699999996z m85.333334-196.693333v159.146666l142.08 20.48v-159.146666z"  horiz-adv-x="1024" />

    
    <glyph glyph-name="scan-confirmation" unicode="&#59077;" d="M170.666667 453.546667a21.76 21.76 0 0 0-21.333334 21.333333V634.4533329999999A112.64 112.64 0 0 0 261.12 746.666667h159.146667a21.333333 21.333333 0 0 0 0-42.666667H261.12a69.973333 69.973333 0 0 1-69.973333-69.546667v-159.573333a21.333333 21.333333 0 0 0-20.48-21.333333zM420.266667 21.33333300000004H261.12a112.64 112.64 0 0 0-112.64 112.213334V247.46666700000003a21.333333 21.333333 0 0 0 21.333333 21.333333 21.333333 21.333333 0 0 0 21.333334-21.333333v-113.92a69.973333 69.973333 0 0 1 69.973333-69.546667h159.146667a21.333333 21.333333 0 1 0 0-42.666667zM761.6 21.33333300000004h-159.146667a21.333333 21.333333 0 1 0 0 42.666667h159.146667a69.546667 69.546667 0 0 1 69.546667 69.546667V247.46666700000003a21.333333 21.333333 0 0 0 21.333333 21.333333 21.333333 21.333333 0 0 0 21.333333-21.333333v-113.92a112.213333 112.213333 0 0 0-112.213333-112.213334zM853.333333 453.546667a21.76 21.76 0 0 0-21.333333 21.333333V634.4533329999999a69.546667 69.546667 0 0 1-70.4 69.546667h-159.146667a21.333333 21.333333 0 1 0 0 42.666667h159.146667a112.213333 112.213333 0 0 0 112.213333-112.213334v-159.573333a21.333333 21.333333 0 0 0-20.48-21.333333zM963.84 341.33333300000004H60.16a21.333333 21.333333 0 0 0-21.333333 21.333334 21.333333 21.333333 0 0 0 21.333333 21.333333h903.68a21.333333 21.333333 0 0 0 21.333333-21.333333 21.333333 21.333333 0 0 0-21.333333-21.333334zM512 675.84a97.706667 97.706667 0 0 1-98.133333-97.706667c0-53.76 98.133333-175.36 98.133333-175.36s97.706667 121.6 97.706667 175.36A97.706667 97.706667 0 0 1 512 675.84z m0-136.533333a48.64 48.64 0 1 0 49.066667 48.64A48.64 48.64 0 0 0 512 539.3066670000001z"  horiz-adv-x="1024" />

    
    </font>
</defs>
</svg>
